<svg width="31" height="28" viewBox="0 0 31 28" fill="none" xmlns="http://www.w3.org/2000/svg">
<path d="M9.46472 23.8491C5.11219 20.4957 0 16.557 0 9.7291C0 2.19154 8.52525 -3.15394 15.5 4.09257L18.6 7.19048C19.054 7.64438 19.7901 7.64424 20.2441 7.19017C20.6979 6.73611 20.6978 6.00006 20.2438 5.54616L17.2492 2.55263C23.8212 -2.25862 31 2.8123 31 9.7291C31 16.557 25.8878 20.4957 21.5352 23.8491C21.0829 24.1977 20.6387 24.54 20.2094 24.8785C18.6 26.1472 17.05 27.3416 15.5 27.3416C13.95 27.3416 12.4 26.1472 10.7907 24.8785C10.3613 24.54 9.91712 24.1977 9.46472 23.8491Z" fill="#E21E3C"/>
</svg>
