<svg width="1440" height="750" viewBox="0 0 1440 750" fill="none" xmlns="http://www.w3.org/2000/svg">
<path d="M393.441 410.73C492.938 410.73 572.29 463.364 648.724 516.05L656.112 521.148C734.177 575.052 815.089 630.907 916.721 630.907C1015.18 630.907 1094.19 578.489 1170 526.205L1177.33 521.148C1255.93 466.863 1337.03 410.913 1439.5 410.732V415.701C1341.24 415.878 1262.4 468.206 1186.72 520.401L1179.39 525.458C1100.67 579.831 1019.43 635.875 916.721 635.875H916.221V635.912C816.958 635.737 737.745 583.193 661.438 530.595L654.05 525.497C575.985 471.593 495.073 415.739 393.441 415.739C294.985 415.739 215.974 468.157 140.16 520.44L132.833 525.497C91.1343 554.287 48.0532 584.031 2.20801 605.087L0.650391 600.468C43.3593 580.838 83.8256 553.517 122.94 526.551L130.771 521.148C209.495 466.815 290.735 410.73 393.441 410.73Z" stroke="#CCCCCC" stroke-opacity="0.2"/>
<path d="M393.441 523.908C492.938 523.908 572.29 576.542 648.724 629.229L656.112 634.326C734.177 688.231 815.089 744.085 916.721 744.085C1015.18 744.085 1094.19 691.667 1170 639.384L1177.33 634.326C1255.93 580.042 1337.03 524.092 1439.5 523.91V528.879C1341.24 529.056 1262.4 581.384 1186.72 633.579L1179.39 638.637C1100.67 693.01 1019.43 749.054 916.721 749.054H916.221V749.091C816.958 748.915 737.745 696.372 661.438 643.774L654.05 638.676C575.985 584.772 495.073 528.917 393.441 528.917C294.985 528.917 215.974 581.335 140.16 633.618L132.833 638.676C91.1343 667.465 48.0532 697.21 2.20801 718.266L0.650391 713.647C43.3593 694.017 83.8256 666.696 122.94 639.73L130.771 634.326C209.495 579.993 290.735 523.908 393.441 523.908Z" stroke="#CCCCCC" stroke-opacity="0.2"/>
<path d="M393.441 370.698C492.938 370.698 572.29 423.331 648.724 476.018L656.112 481.116C734.177 535.02 815.089 590.874 916.721 590.874C1015.18 590.874 1094.19 538.457 1170 486.173L1177.33 481.116C1255.93 426.831 1337.03 370.881 1439.5 370.7V375.668C1341.24 375.845 1262.4 428.174 1186.72 480.369L1179.39 485.426C1100.67 539.799 1019.43 595.843 916.721 595.843H916.221V595.88C816.958 595.704 737.745 543.161 661.438 490.563L654.05 485.465C575.985 431.561 495.073 375.706 393.441 375.706C294.985 375.707 215.974 428.124 140.16 480.408L132.833 485.465C91.1343 514.255 48.0532 543.999 2.20801 565.055L0.650391 560.436C46.2158 539.494 89.2284 509.836 130.771 481.116L130.771 481.115C209.494 426.782 290.735 370.698 393.441 370.698Z" stroke="#CCCCCC" stroke-opacity="0.2"/>
<path d="M393.441 483.876C492.938 483.876 572.29 536.51 648.724 589.197L656.112 594.294C734.177 648.199 815.089 704.053 916.721 704.053C1015.18 704.053 1094.19 651.635 1170 599.352L1177.33 594.294C1255.93 540.01 1337.03 484.06 1439.5 483.878V488.847C1341.24 489.024 1262.4 541.352 1186.72 593.547L1179.39 598.605C1100.67 652.978 1019.43 709.022 916.721 709.022H916.221V709.059C816.958 708.883 737.745 656.34 661.438 603.742L654.05 598.644C575.985 544.74 495.073 488.885 393.441 488.885C294.985 488.885 215.974 541.303 140.16 593.586L132.833 598.644C91.1343 627.433 48.0532 657.178 2.20801 678.234L0.650391 673.615C46.2158 652.672 89.2284 623.014 130.771 594.294L130.771 594.293C209.494 539.96 290.735 483.876 393.441 483.876Z" stroke="#CCCCCC" stroke-opacity="0.2"/>
<path d="M393.441 330.666C492.938 330.666 572.29 383.299 648.724 435.986L656.112 441.084C734.177 494.988 815.089 550.882 916.721 550.882C1015.18 550.882 1094.19 498.464 1170 446.144L1177.33 441.084C1255.93 386.799 1337.03 330.849 1439.5 330.668V335.636C1341.24 335.813 1262.4 388.142 1186.72 440.337L1179.39 445.394C1100.67 499.767 1019.43 555.811 916.721 555.811H916.221V555.848C816.958 555.672 737.745 503.129 661.438 450.531L654.05 445.433C575.985 391.529 495.073 335.674 393.441 335.674C294.985 335.674 215.974 388.092 140.16 440.376L132.833 445.433C91.1343 474.223 48.0532 503.967 2.20801 525.023L0.650391 520.404C46.2158 499.461 89.2284 469.804 130.771 441.084L130.771 441.083C209.494 386.749 290.735 330.666 393.441 330.666Z" stroke="#CCCCCC" stroke-opacity="0.2"/>
<path d="M393.441 443.844C492.938 443.844 572.29 496.478 648.724 549.165L656.112 554.262C734.177 608.167 815.089 664.061 916.721 664.061C1015.18 664.061 1094.19 611.642 1170 559.323L1177.33 554.262C1255.93 499.978 1337.03 444.028 1439.5 443.846V448.815C1341.24 448.992 1262.4 501.32 1186.72 553.515L1179.39 558.573C1100.67 612.946 1019.43 668.99 916.721 668.99H916.221V669.027C816.958 668.851 737.745 616.308 661.438 563.709L654.05 558.612C575.985 504.707 495.073 448.853 393.441 448.853C294.985 448.853 215.974 501.271 140.16 553.554L132.833 558.612C91.1343 587.401 48.0532 617.146 2.20801 638.202L0.650391 633.583C46.2158 612.64 89.2284 582.982 130.771 554.262L130.771 554.261C209.494 499.928 290.735 443.844 393.441 443.844Z" stroke="#CCCCCC" stroke-opacity="0.2"/>
<path d="M393.441 290.633C492.938 290.633 572.29 343.267 648.724 395.954L656.112 401.051C734.177 454.956 815.089 510.85 916.721 510.85C1015.18 510.85 1094.19 458.432 1170 406.112L1177.33 401.051C1255.93 346.806 1337.03 290.817 1439.5 290.635V295.604C1341.24 295.781 1262.4 348.11 1186.72 400.304L1179.39 405.361C1100.67 459.694 1019.43 515.779 916.721 515.779H916.221V515.816C816.958 515.64 737.745 463.097 661.438 410.499L654.05 405.401C575.985 351.497 495.073 295.642 393.441 295.642C294.985 295.642 215.974 348.06 140.16 400.343L132.833 405.401C91.1343 434.19 48.0532 463.935 2.20801 484.991L0.650391 480.372C46.2156 459.429 89.2276 429.771 130.771 401.051C209.495 346.718 290.735 290.634 393.441 290.633Z" stroke="#CCCCCC" stroke-opacity="0.2"/>
<path d="M393.441 250.562C492.938 250.562 572.29 303.195 648.724 355.882L656.112 360.979C734.177 414.884 815.089 470.778 916.721 470.778C1015.18 470.778 1094.19 418.36 1170 366.04L1177.33 360.979C1255.93 306.734 1337.03 250.745 1439.5 250.563V255.532C1341.24 255.709 1262.4 308.038 1186.72 360.232L1179.39 365.289C1100.67 419.622 1019.43 475.707 916.721 475.707H916.221V475.744C816.958 475.568 737.745 423.025 661.438 370.427L654.05 365.329C575.985 311.425 495.073 255.57 393.441 255.57C294.985 255.57 215.974 307.988 140.16 360.271L132.833 365.329C91.1343 394.118 48.0532 423.863 2.20801 444.919L0.650391 440.3C46.2156 419.357 89.2276 389.699 130.771 360.979C209.495 306.646 290.735 250.562 393.441 250.562Z" stroke="#CCCCCC" stroke-opacity="0.2"/>
<path d="M393.441 210.529C492.938 210.529 572.29 263.163 648.724 315.85L656.112 320.947C734.177 374.852 815.089 430.706 916.721 430.706C1015.18 430.706 1094.19 378.288 1170 326.005L1177.33 320.947C1255.93 266.663 1337.03 210.713 1439.5 210.531V215.5C1341.24 215.677 1262.4 268.005 1186.72 320.2L1179.39 325.258C1100.67 379.631 1019.43 435.675 916.721 435.675H916.221V435.712C816.958 435.536 737.745 382.993 661.438 330.395L654.05 325.297C575.985 271.393 495.073 215.538 393.441 215.538C294.985 215.538 215.974 267.956 140.16 320.239L132.833 325.297C91.1343 354.086 48.0532 383.831 2.20801 404.887L0.650391 400.268C46.2156 379.325 89.2276 349.667 130.771 320.947C209.495 266.614 290.735 210.529 393.441 210.529Z" stroke="#CCCCCC" stroke-opacity="0.2"/>
<path d="M393.441 170.497C492.938 170.497 572.29 223.131 648.724 275.818L656.112 280.915C734.177 334.82 815.089 390.674 916.721 390.674C1015.18 390.674 1094.19 338.256 1170 285.973L1177.33 280.915C1255.93 226.67 1337.03 170.681 1439.5 170.499V175.468C1341.24 175.645 1262.4 227.973 1186.72 280.168L1179.39 285.225C1100.67 339.558 1019.43 395.643 916.721 395.643H916.221V395.68C816.958 395.504 737.745 342.961 661.438 290.363L654.05 285.265C575.985 231.36 495.073 175.506 393.441 175.506C294.985 175.506 215.974 227.924 140.16 280.207L132.833 285.265C91.1343 314.054 48.0532 343.799 2.20801 364.855L0.650391 360.236C43.3594 340.606 83.8256 313.285 122.94 286.319L130.771 280.915C209.495 226.582 290.735 170.497 393.441 170.497Z" stroke="#CCCCCC" stroke-opacity="0.2"/>
<path d="M393.441 130.465C492.938 130.465 572.29 183.099 648.724 235.785L656.112 240.883C734.177 294.788 815.089 350.642 916.721 350.642C1015.18 350.642 1094.19 298.223 1170 245.94L1177.33 240.883C1255.93 186.599 1337.03 130.649 1439.5 130.467V135.436C1341.24 135.613 1262.4 187.941 1186.72 240.136L1179.39 245.194C1100.67 299.566 1019.43 355.611 916.721 355.611H916.221V355.648C816.958 355.472 737.745 302.929 661.438 250.33L654.05 245.233C575.985 191.328 495.073 135.474 393.441 135.474C294.985 135.474 215.974 187.892 140.16 240.175L132.833 245.233C91.1343 274.022 48.0532 303.767 2.20801 324.823L0.650391 320.203C46.2156 299.261 89.2276 269.603 130.771 240.883C209.495 186.55 290.735 130.465 393.441 130.465Z" stroke="#CCCCCC" stroke-opacity="0.2"/>
<path d="M393.441 90.433C492.938 90.433 572.29 143.067 648.724 195.753L656.112 200.851C734.177 254.755 815.089 310.61 916.721 310.61C1015.18 310.61 1094.19 258.192 1170 205.909L1177.33 200.851C1255.93 146.606 1337.03 90.6166 1439.5 90.435V95.4037C1341.24 95.5807 1262.4 147.909 1186.72 200.104L1179.39 205.161C1100.67 259.494 1019.43 315.579 916.721 315.579H916.221V315.616C816.958 315.44 737.745 262.897 661.438 210.298L654.05 205.201C575.985 151.296 495.073 95.4418 393.441 95.4418C294.985 95.4419 215.974 147.86 140.16 200.143L132.833 205.201C91.1343 233.99 48.0532 263.735 2.20801 284.79L0.650391 280.171C46.2156 259.229 89.2276 229.571 130.771 200.851C209.495 146.518 290.735 90.4331 393.441 90.433Z" stroke="#CCCCCC" stroke-opacity="0.2"/>
<path d="M393.441 50.3611C492.938 50.3611 572.29 102.995 648.724 155.681L656.112 160.779C734.177 214.683 815.089 270.578 916.721 270.578C1015.18 270.578 1094.19 218.159 1170 165.84L1177.33 160.779C1255.93 106.534 1337.03 50.5446 1439.5 50.363V55.3318C1341.24 55.5087 1262.4 107.837 1186.72 160.068L1179.39 165.129C1100.67 219.462 1019.43 275.547 916.721 275.547H916.221V275.584C816.958 275.408 737.745 222.864 661.438 170.265L654.05 165.169C575.985 111.264 495.074 55.3699 393.441 55.3699C294.985 55.3699 215.974 107.788 140.16 160.071L132.833 165.129C91.1343 193.918 48.0532 223.663 2.20801 244.719L0.650391 240.099C46.2156 219.157 89.2276 189.499 130.771 160.779C209.495 106.446 290.735 50.3611 393.441 50.3611Z" stroke="#CCCCCC" stroke-opacity="0.2"/>
<path d="M393.407 10.329C492.904 10.329 572.255 62.9628 648.689 115.649L656.078 120.747C734.143 174.651 815.054 230.506 916.687 230.506C1015.14 230.506 1094.15 178.088 1169.97 125.805L1177.29 120.747C1255.89 66.4624 1337 10.5125 1439.47 10.3309V15.2997C1341.21 15.4767 1262.37 67.805 1186.68 120L1179.36 125.057C1100.63 179.43 1019.39 235.474 916.687 235.474H915.598L915.627 235.509C816.642 235.125 737.592 182.688 661.438 130.194L654.05 125.097C575.985 71.1922 495.073 15.3378 393.441 15.3378C294.985 15.3378 215.974 67.7556 140.16 120.039L132.833 125.097C91.1343 153.886 48.0532 183.63 2.20801 204.686L0.650391 200.067C43.3593 180.437 83.8256 153.116 122.94 126.15L130.771 120.747C209.46 66.4138 290.701 10.329 393.407 10.329Z" stroke="#CCCCCC" stroke-opacity="0.2"/>
<path d="M524.6 0.685547C567.888 20.4588 608.689 48.0037 648.197 75.25L656.112 80.7148C734.21 134.619 815.089 190.514 916.755 190.514C1015.24 190.514 1094.22 138.095 1170.04 85.8115L1177.36 80.7539C1219.34 51.7658 1262.72 21.8222 1308.88 0.725586L1310.43 5.34277C1267.4 24.974 1226.68 52.4727 1187.28 79.624L1179.39 85.0645C1100.67 139.437 1019.43 195.482 916.721 195.482C817.225 195.482 737.873 142.849 661.439 90.126L654.05 85.0254C612.235 56.1468 568.949 26.2479 523.042 5.30371L524.6 0.685547Z" stroke="#CCCCCC" stroke-opacity="0.2"/>
<path d="M263.84 5.34302C220.811 24.9743 180.085 52.4728 140.714 79.6243L132.833 85.0637C91.0661 113.853 47.9852 143.598 2.17383 164.654L0.616211 160.035C46.1818 139.093 89.1941 109.434 130.737 80.7141L130.736 80.7131C172.743 51.7643 216.097 21.8215 262.282 0.724854L263.84 5.34302Z" stroke="#CCCCCC" stroke-opacity="0.2"/>
<path d="M1238.51 5.22766C1221.11 16.3421 1203.69 28.2595 1186.7 39.9591L1179.39 44.9923L1179.39 44.9933C1100.67 99.3661 1019.43 155.45 916.72 155.45C817.224 155.45 737.872 102.817 661.438 50.0939L654.05 44.9933C634.803 31.706 614.871 17.9406 594.934 5.22668L596.965 0.887817C614.401 12.0068 631.81 23.8942 648.771 35.5958L656.078 40.6427C734.142 94.547 815.054 150.441 916.72 150.442C1015.21 150.442 1094.19 98.0228 1170.03 45.7032L1177.36 40.6427C1196.65 27.3382 1216.53 13.6096 1236.48 0.887817L1238.51 5.22766Z" stroke="#CCCCCC" stroke-opacity="0.2"/>
<path d="M191.88 5.26648C176.958 14.7822 162.059 24.887 147.423 34.9393L132.765 45.0321V45.0331C91.0664 73.8221 47.9857 103.566 2.1748 124.622L0.616211 120.004C43.3253 100.374 83.791 73.0867 122.906 46.1249L130.736 40.7225C150.02 27.4174 169.899 13.6492 189.849 0.926636L191.88 5.26648Z" stroke="#CCCCCC" stroke-opacity="0.2"/>
<path d="M656.549 0.974365C734.502 54.7781 815.259 110.449 916.721 110.449C1018.18 110.449 1098.91 54.8174 1176.86 1.01343L1179.03 5.24878C1100.55 59.4554 1019.53 115.273 917.221 115.455V115.419H916.721C814.171 115.419 733.021 59.5033 654.409 5.20776L656.549 0.974365Z" stroke="#CCCCCC" stroke-opacity="0.2"/>
<path d="M132.399 5.25098C90.7805 33.9619 47.8513 63.5942 2.17383 84.5889L0.617188 79.9717C46.0121 59.1465 88.8383 29.5905 130.202 1.0498L132.399 5.25098Z" stroke="#CCCCCC" stroke-opacity="0.2"/>
<path d="M1119.43 5.2655C1064.86 39.9969 998.164 75.3856 916.721 75.3856C835.277 75.3856 768.578 39.9971 714.012 5.2655L716.044 0.925659C770.048 35.3016 836.196 70.4169 916.721 70.4169C997.245 70.4168 1063.36 35.3005 1117.4 0.924683L1119.43 5.2655Z" stroke="#CCCCCC" stroke-opacity="0.2"/>
<path d="M72.8018 5.26453C46.5329 21.9612 24.0551 34.4693 2.17383 44.5184L0.617188 39.9003C22.3787 29.9525 44.6883 17.5482 70.7705 0.925659L72.8018 5.26453Z" stroke="#CCCCCC" stroke-opacity="0.2"/>
<path d="M1046.96 5.34143C1002.46 25.524 959.855 35.3541 916.755 35.3541H916.721C873.586 35.3541 830.986 25.5243 786.477 5.34143L788.034 0.72229C832.007 20.6494 874.104 30.3844 916.721 30.3844C959.337 30.3844 1001.43 20.6883 1045.41 0.72229L1046.96 5.34143Z" stroke="#EBE7E7" stroke-opacity="0.2"/>
</svg>
