<svg width="18" height="19" viewBox="0 0 18 19" fill="none" xmlns="http://www.w3.org/2000/svg">
<path fill-rule="evenodd" clip-rule="evenodd" d="M4.22707 5.15432C5.39865 3.98274 7.29814 3.98274 8.46971 5.15432L10.591 7.27564C11.7626 8.44723 11.7626 10.3467 10.591 11.5183C10.2981 11.8112 9.82323 11.8112 9.53036 11.5183C9.23748 11.2254 9.23748 10.7505 9.53036 10.4576C10.1162 9.87185 10.1162 8.92205 9.53036 8.3363L7.40905 6.21497C6.82326 5.62919 5.87352 5.62919 5.28773 6.21497C4.70195 6.80076 4.70195 7.75051 5.28773 8.3363L5.81806 8.86663C6.11096 9.1595 6.11095 9.6344 5.81806 9.92728C5.52517 10.2202 5.05029 10.2202 4.7574 9.92728L4.22707 9.39695C3.05549 8.22539 3.05549 6.32589 4.22707 5.15432ZM8.46971 8.3363C8.76258 8.62918 8.76258 9.10408 8.46971 9.39695C7.88396 9.98278 7.88396 10.9325 8.46971 11.5183L10.591 13.6396C11.1768 14.2254 12.1266 14.2254 12.7124 13.6396C13.2981 13.0538 13.2981 12.1041 12.7124 11.5183L12.1821 10.9879C11.8891 10.6951 11.8891 10.2202 12.1821 9.92728C12.4749 9.6344 12.9498 9.6344 13.2427 9.92728L13.773 10.4576C14.9446 11.6292 14.9446 13.5287 13.773 14.7003C12.6015 15.8719 10.7019 15.8719 9.53036 14.7003L7.40906 12.579C6.23748 11.4074 6.23748 9.50788 7.40906 8.3363C7.70193 8.04341 8.17683 8.04341 8.46971 8.3363Z" fill="#E21E3C"/>
</svg>
