<svg width="16" height="13" viewBox="0 0 16 13" fill="none" xmlns="http://www.w3.org/2000/svg">
<path d="M5.39354 6.29948H2.26687C2.3202 3.76988 2.93353 3.3528 4.84686 2.43196C5.06686 2.32363 5.14019 2.09613 5.00686 1.91196C4.87352 1.73321 4.59351 1.67363 4.36684 1.78197C2.11351 2.8653 1.32684 3.52612 1.32684 6.67865V9.59823C1.32684 10.5245 2.25353 11.272 3.38686 11.272H5.38686C6.5602 11.272 7.44682 10.5516 7.44682 9.59823V7.97323C7.45349 7.0199 6.56687 6.29948 5.39354 6.29948Z" fill="#E21E3C"/>
<path opacity="0.4" d="M12.607 6.29948H9.48034C9.53368 3.76988 10.1471 3.3528 12.0604 2.43196C12.2804 2.32363 12.3537 2.09613 12.2204 1.91196C12.0871 1.73321 11.807 1.67363 11.5803 1.78197C9.32701 2.8653 8.54034 3.52612 8.54034 6.67865V9.59823C8.54034 10.5245 9.46708 11.272 10.6004 11.272H12.6004C13.7737 11.272 14.6603 10.5516 14.6603 9.59823V7.97323C14.667 7.0199 13.7803 6.29948 12.607 6.29948Z" fill="#FB3553"/>
</svg>
