<svg width="979" height="112" viewBox="0 0 979 112" fill="none" xmlns="http://www.w3.org/2000/svg">
<mask id="path-1-outside-1_415_853" maskUnits="userSpaceOnUse" x="0" y="0" width="979" height="112" fill="black">
<rect fill="white" width="979" height="112"/>
<path d="M13.56 63.856V49.416H40.464C45.8347 49.416 49.9893 48.048 52.928 45.312C55.968 42.4747 57.488 38.5733 57.488 33.608C57.488 29.1493 56.0187 25.4 53.08 22.36C50.1413 19.32 45.9867 17.8 40.616 17.8H13.56V2.59999H41.376C48.064 2.59999 53.9413 3.96799 59.008 6.70399C64.0747 9.33866 67.976 12.9867 70.712 17.648C73.5493 22.208 74.968 27.4267 74.968 33.304C74.968 39.4853 73.5493 44.856 70.712 49.416C67.976 53.976 64.0747 57.5227 59.008 60.056C53.9413 62.5893 48.064 63.856 41.376 63.856H13.56ZM1.552 109V2.59999H19.032V109H1.552ZM59.92 109L22.68 62.792L38.944 56.864L81.96 109H59.92ZM91.8792 109V2.59999H109.359V109H91.8792ZM103.887 109V93.04H163.471V109H103.887ZM103.887 62.336V46.984H158.303V62.336H103.887ZM103.887 18.56V2.59999H162.711V18.56H103.887ZM190.503 109V93.04H218.471C225.767 93.04 232.151 91.4693 237.623 88.328C243.197 85.1867 247.503 80.8293 250.543 75.256C253.685 69.5813 255.255 63.0453 255.255 55.648C255.255 48.352 253.685 41.9173 250.543 36.344C247.402 30.7707 243.045 26.4133 237.471 23.272C231.999 20.1307 225.666 18.56 218.471 18.56H190.503V2.59999H218.927C226.629 2.59999 233.773 3.96799 240.359 6.70399C246.946 9.33866 252.671 13.088 257.535 17.952C262.501 22.7147 266.351 28.3387 269.087 34.824C271.823 41.208 273.191 48.2 273.191 55.8C273.191 63.2987 271.823 70.2907 269.087 76.776C266.351 83.2613 262.551 88.936 257.687 93.8C252.823 98.5627 247.098 102.312 240.511 105.048C233.925 107.683 226.831 109 219.231 109H190.503ZM178.495 109V2.59999H195.975V109H178.495ZM287.971 109V2.59999H305.451V109H287.971ZM353.016 110.52C344.606 110.52 337.462 109 331.584 105.96C325.707 102.92 320.438 98.4613 315.776 92.584L327.632 80.728C330.571 84.984 334.067 88.328 338.12 90.76C342.174 93.0907 347.342 94.256 353.624 94.256C359.502 94.256 364.163 93.04 367.608 90.608C371.155 88.176 372.928 84.832 372.928 80.576C372.928 77.0293 372.016 74.1413 370.192 71.912C368.368 69.6827 365.936 67.8587 362.896 66.44C359.958 64.92 356.664 63.6027 353.016 62.488C349.47 61.272 345.872 59.9547 342.224 58.536C338.678 57.016 335.384 55.1413 332.344 52.912C329.406 50.6827 327.024 47.7947 325.2 44.248C323.376 40.7013 322.464 36.192 322.464 30.72C322.464 24.4373 323.984 19.1173 327.024 14.76C330.166 10.3013 334.371 6.90666 339.64 4.57599C344.91 2.24533 350.787 1.07999 357.272 1.07999C364.264 1.07999 370.496 2.44799 375.968 5.184C381.542 7.92 386.051 11.416 389.496 15.672L377.64 27.528C374.6 24.0827 371.408 21.5493 368.064 19.928C364.822 18.2053 361.072 17.344 356.816 17.344C351.547 17.344 347.392 18.408 344.352 20.536C341.414 22.664 339.944 25.6533 339.944 29.504C339.944 32.7467 340.856 35.3813 342.68 37.408C344.504 39.3333 346.886 41.0053 349.824 42.424C352.864 43.7413 356.158 45.008 359.704 46.224C363.352 47.44 366.95 48.808 370.496 50.328C374.144 51.848 377.438 53.824 380.376 56.256C383.416 58.5867 385.848 61.6267 387.672 65.376C389.496 69.1253 390.408 73.8373 390.408 79.512C390.408 89.0373 387.014 96.5867 380.224 102.16C373.536 107.733 364.467 110.52 353.016 110.52ZM444.195 109V93.04H472.163C479.459 93.04 485.843 91.4693 491.315 88.328C496.888 85.1867 501.195 80.8293 504.235 75.256C507.376 69.5813 508.947 63.0453 508.947 55.648C508.947 48.352 507.376 41.9173 504.235 36.344C501.094 30.7707 496.736 26.4133 491.163 23.272C485.691 20.1307 479.358 18.56 472.163 18.56H444.195V2.59999H472.619C480.32 2.59999 487.464 3.96799 494.051 6.70399C500.638 9.33866 506.363 13.088 511.227 17.952C516.192 22.7147 520.043 28.3387 522.779 34.824C525.515 41.208 526.883 48.2 526.883 55.8C526.883 63.2987 525.515 70.2907 522.779 76.776C520.043 83.2613 516.243 88.936 511.379 93.8C506.515 98.5627 500.79 102.312 494.203 105.048C487.616 107.683 480.523 109 472.923 109H444.195ZM432.187 109V2.59999H449.667V109H432.187ZM541.663 109V2.59999H559.143V109H541.663ZM627.178 110.52C619.882 110.52 612.991 109.101 606.506 106.264C600.021 103.427 594.346 99.5253 589.482 94.56C584.618 89.4933 580.767 83.6667 577.93 77.08C575.194 70.392 573.826 63.248 573.826 55.648C573.826 48.048 575.194 40.9547 577.93 34.368C580.767 27.7813 584.618 22.0053 589.482 17.04C594.447 11.9733 600.223 8.07199 606.81 5.33599C613.498 2.49866 620.693 1.07999 628.394 1.07999C636.805 1.07999 644.607 2.70133 651.802 5.94399C658.997 9.18666 665.026 13.7973 669.89 19.776L658.034 31.632C654.893 27.1733 650.687 23.7787 645.418 21.448C640.149 19.016 634.474 17.8 628.394 17.8C621.098 17.8 614.663 19.4213 609.09 22.664C603.618 25.8053 599.362 30.2133 596.322 35.888C593.282 41.5627 591.762 48.1493 591.762 55.648C591.762 63.1467 593.282 69.784 596.322 75.56C599.463 81.2347 603.669 85.6933 608.938 88.936C614.207 92.1787 620.186 93.8 626.874 93.8C633.967 93.8 640.047 92.5333 645.114 90C650.282 87.3653 654.234 83.5147 656.97 78.448C659.706 73.28 661.074 66.9467 661.074 59.448L672.018 67.352H626.57V51.392H679.162V53.824C679.162 66.4907 676.882 77.0293 672.322 85.44C667.863 93.8507 661.733 100.133 653.93 104.288C646.127 108.443 637.21 110.52 627.178 110.52ZM693.52 109V2.59999H711V109H693.52ZM757.756 109V5.64H775.236V109H757.756ZM723.1 18.56V2.59999H809.892V18.56H723.1ZM799.474 109L843.25 2.59999H855.41L898.882 109H880.034L845.986 22.816H852.37L818.018 109H799.474ZM821.058 88.48V73.28H877.45V88.48H821.058ZM909.877 109V2.59999H927.357V109H909.877ZM921.885 109V93.04H977.517V109H921.885Z"/>
</mask>
<path d="M13.56 63.856H12.56V64.856H13.56V63.856ZM13.56 49.416V48.416H12.56V49.416H13.56ZM52.928 45.312L53.6094 46.0439L53.6103 46.0431L52.928 45.312ZM53.08 22.36L53.799 21.665L53.08 22.36ZM13.56 17.8H12.56V18.8H13.56V17.8ZM13.56 2.59999V1.59999H12.56V2.59999H13.56ZM59.008 6.70399L58.5329 7.5839L58.5397 7.58761L58.5467 7.59121L59.008 6.70399ZM70.712 17.648L69.8496 18.1542L69.8561 18.1653L69.8629 18.1763L70.712 17.648ZM70.712 49.416L69.8629 48.8877L69.8587 48.8946L69.8545 48.9015L70.712 49.416ZM59.008 60.056L58.5608 59.1616L59.008 60.056ZM1.552 109H0.552001V110H1.552V109ZM1.552 2.59999V1.59999H0.552001V2.59999H1.552ZM19.032 2.59999H20.032V1.59999H19.032V2.59999ZM19.032 109V110H20.032V109H19.032ZM59.92 109L59.1414 109.628L59.4416 110H59.92V109ZM22.68 62.792L22.3376 61.8525L21.0243 62.3311L21.9014 63.4195L22.68 62.792ZM38.944 56.864L39.7154 56.2276L39.2656 55.6824L38.6016 55.9245L38.944 56.864ZM81.96 109V110H84.0815L82.7313 108.364L81.96 109ZM13.56 63.856H14.56V49.416H13.56H12.56V63.856H13.56ZM13.56 49.416V50.416H40.464V49.416V48.416H13.56V49.416ZM40.464 49.416V50.416C46.0004 50.416 50.4305 49.0036 53.6094 46.0439L52.928 45.312L52.2466 44.5801C49.5482 47.0924 45.669 48.416 40.464 48.416V49.416ZM52.928 45.312L53.6103 46.0431C56.892 42.9802 58.488 38.7922 58.488 33.608H57.488H56.488C56.488 38.3545 55.044 41.9691 52.2457 44.5809L52.928 45.312ZM57.488 33.608H58.488C58.488 28.9056 56.9285 24.9024 53.799 21.665L53.08 22.36L52.361 23.055C55.1088 25.8976 56.488 29.393 56.488 33.608H57.488ZM53.08 22.36L53.799 21.665C50.6242 18.3807 46.1804 16.8 40.616 16.8V17.8V18.8C45.7929 18.8 49.6585 20.2593 52.361 23.055L53.08 22.36ZM40.616 17.8V16.8H13.56V17.8V18.8H40.616V17.8ZM13.56 17.8H14.56V2.59999H13.56H12.56V17.8H13.56ZM13.56 2.59999V3.59999H41.376V2.59999V1.59999H13.56V2.59999ZM41.376 2.59999V3.59999C47.925 3.59999 53.6341 4.9386 58.5329 7.5839L59.008 6.70399L59.4832 5.82409C54.2485 2.99739 48.203 1.59999 41.376 1.59999V2.59999ZM59.008 6.70399L58.5467 7.59121C63.4563 10.1443 67.2143 13.6644 69.8496 18.1542L70.712 17.648L71.5744 17.1418C68.7377 12.3089 64.693 8.53307 59.4694 5.81678L59.008 6.70399ZM70.712 17.648L69.8629 18.1763C72.5924 22.5629 73.968 27.5952 73.968 33.304H74.968H75.968C75.968 27.2582 74.5063 21.8531 71.5611 17.1197L70.712 17.648ZM74.968 33.304H73.968C73.968 39.3274 72.5875 44.509 69.8629 48.8877L70.712 49.416L71.5611 49.9443C74.5112 45.203 75.968 39.6433 75.968 33.304H74.968ZM70.712 49.416L69.8545 48.9015C67.2228 53.2876 63.469 56.7075 58.5608 59.1616L59.008 60.056L59.4552 60.9504C64.6804 58.3378 68.7292 54.6644 71.5695 49.9305L70.712 49.416ZM59.008 60.056L58.5608 59.1616C53.6559 61.614 47.9367 62.856 41.376 62.856V63.856V64.856C48.1914 64.856 54.2267 63.5647 59.4552 60.9504L59.008 60.056ZM41.376 63.856V62.856H13.56V63.856V64.856H41.376V63.856ZM1.552 109H2.552V2.59999H1.552H0.552001V109H1.552ZM1.552 2.59999V3.59999H19.032V2.59999V1.59999H1.552V2.59999ZM19.032 2.59999H18.032V109H19.032H20.032V2.59999H19.032ZM19.032 109V108H1.552V109V110H19.032V109ZM59.92 109L60.6986 108.372L23.4586 62.1645L22.68 62.792L21.9014 63.4195L59.1414 109.628L59.92 109ZM22.68 62.792L23.0224 63.7315L39.2865 57.8035L38.944 56.864L38.6016 55.9245L22.3376 61.8525L22.68 62.792ZM38.944 56.864L38.1727 57.5004L81.1887 109.636L81.96 109L82.7313 108.364L39.7154 56.2276L38.944 56.864ZM81.96 109V108H59.92V109V110H81.96V109ZM91.8792 109H90.8792V110H91.8792V109ZM91.8792 2.59999V1.59999H90.8792V2.59999H91.8792ZM109.359 2.59999H110.359V1.59999H109.359V2.59999ZM109.359 109V110H110.359V109H109.359ZM103.887 109H102.887V110H103.887V109ZM103.887 93.04V92.04H102.887V93.04H103.887ZM163.471 93.04H164.471V92.04H163.471V93.04ZM163.471 109V110H164.471V109H163.471ZM103.887 62.336H102.887V63.336H103.887V62.336ZM103.887 46.984V45.984H102.887V46.984H103.887ZM158.303 46.984H159.303V45.984H158.303V46.984ZM158.303 62.336V63.336H159.303V62.336H158.303ZM103.887 18.56H102.887V19.56H103.887V18.56ZM103.887 2.59999V1.59999H102.887V2.59999H103.887ZM162.711 2.59999H163.711V1.59999H162.711V2.59999ZM162.711 18.56V19.56H163.711V18.56H162.711ZM91.8792 109H92.8792V2.59999H91.8792H90.8792V109H91.8792ZM91.8792 2.59999V3.59999H109.359V2.59999V1.59999H91.8792V2.59999ZM109.359 2.59999H108.359V109H109.359H110.359V2.59999H109.359ZM109.359 109V108H91.8792V109V110H109.359V109ZM103.887 109H104.887V93.04H103.887H102.887V109H103.887ZM103.887 93.04V94.04H163.471V93.04V92.04H103.887V93.04ZM163.471 93.04H162.471V109H163.471H164.471V93.04H163.471ZM163.471 109V108H103.887V109V110H163.471V109ZM103.887 62.336H104.887V46.984H103.887H102.887V62.336H103.887ZM103.887 46.984V47.984H158.303V46.984V45.984H103.887V46.984ZM158.303 46.984H157.303V62.336H158.303H159.303V46.984H158.303ZM158.303 62.336V61.336H103.887V62.336V63.336H158.303V62.336ZM103.887 18.56H104.887V2.59999H103.887H102.887V18.56H103.887ZM103.887 2.59999V3.59999H162.711V2.59999V1.59999H103.887V2.59999ZM162.711 2.59999H161.711V18.56H162.711H163.711V2.59999H162.711ZM162.711 18.56V17.56H103.887V18.56V19.56H162.711V18.56ZM190.503 109H189.503V110H190.503V109ZM190.503 93.04V92.04H189.503V93.04H190.503ZM237.623 88.328L237.132 87.4568L237.126 87.4607L237.623 88.328ZM250.543 75.256L249.669 74.7717L249.666 74.7771L250.543 75.256ZM250.543 36.344L249.672 36.835L250.543 36.344ZM237.471 23.272L236.974 24.1393L236.98 24.1432L237.471 23.272ZM190.503 18.56H189.503V19.56H190.503V18.56ZM190.503 2.59999V1.59999H189.503V2.59999H190.503ZM240.359 6.70399L239.976 7.62757L239.988 7.63247L240.359 6.70399ZM257.535 17.952L256.828 18.6591L256.836 18.6665L256.843 18.6737L257.535 17.952ZM269.087 34.824L268.166 35.2127L268.168 35.2179L269.087 34.824ZM257.687 93.8L258.387 94.5145L258.395 94.5071L257.687 93.8ZM240.511 105.048L240.883 105.977L240.895 105.971L240.511 105.048ZM178.495 109H177.495V110H178.495V109ZM178.495 2.59999V1.59999H177.495V2.59999H178.495ZM195.975 2.59999H196.975V1.59999H195.975V2.59999ZM195.975 109V110H196.975V109H195.975ZM190.503 109H191.503V93.04H190.503H189.503V109H190.503ZM190.503 93.04V94.04H218.471V93.04V92.04H190.503V93.04ZM218.471 93.04V94.04C225.915 94.04 232.476 92.4364 238.121 89.1953L237.623 88.328L237.126 87.4607C231.827 90.5023 225.62 92.04 218.471 92.04V93.04ZM237.623 88.328L238.114 89.1992C243.85 85.9666 248.291 81.4739 251.421 75.7348L250.543 75.256L249.666 74.7771C246.716 80.1847 242.544 84.4067 237.132 87.4568L237.623 88.328ZM250.543 75.256L251.418 75.7403C254.653 69.8977 256.255 63.1907 256.255 55.648H255.255H254.255C254.255 62.9 252.717 69.265 249.669 74.7717L250.543 75.256ZM255.255 55.648H256.255C256.255 48.2045 254.652 41.5962 251.415 35.853L250.543 36.344L249.672 36.835C252.718 42.2385 254.255 48.4995 254.255 55.648H255.255ZM250.543 36.344L251.415 35.853C248.184 30.1206 243.695 25.6318 237.962 22.4008L237.471 23.272L236.98 24.1432C242.395 27.1948 246.621 31.4207 249.672 36.835L250.543 36.344ZM237.471 23.272L237.969 22.4047C232.326 19.1648 225.816 17.56 218.471 17.56V18.56V19.56C225.516 19.56 231.673 21.0965 236.974 24.1393L237.471 23.272ZM218.471 18.56V17.56H190.503V18.56V19.56H218.471V18.56ZM190.503 18.56H191.503V2.59999H190.503H189.503V18.56H190.503ZM190.503 2.59999V3.59999H218.927V2.59999V1.59999H190.503V2.59999ZM218.927 2.59999V3.59999C226.508 3.59999 233.52 4.94591 239.976 7.62749L240.359 6.70399L240.743 5.7805C234.025 2.99008 226.75 1.59999 218.927 1.59999V2.59999ZM240.359 6.70399L239.988 7.63247C246.453 10.2185 252.063 13.8939 256.828 18.6591L257.535 17.952L258.243 17.2449C253.28 12.2821 247.439 8.45887 240.731 5.77552L240.359 6.70399ZM257.535 17.952L256.843 18.6737C261.708 23.3399 265.482 28.8498 268.166 35.2127L269.087 34.824L270.009 34.4353C267.221 27.8275 263.294 22.0894 258.228 17.2303L257.535 17.952ZM269.087 34.824L268.168 35.2179C270.846 41.4661 272.191 48.3226 272.191 55.8H273.191H274.191C274.191 48.0774 272.801 40.9498 270.007 34.4301L269.087 34.824ZM273.191 55.8H272.191C272.191 63.174 270.847 70.0329 268.166 76.3873L269.087 76.776L270.009 77.1647C272.8 70.5485 274.191 63.4233 274.191 55.8H273.191ZM269.087 76.776L268.166 76.3873C265.479 82.7565 261.751 88.3223 256.98 93.0929L257.687 93.8L258.395 94.5071C263.352 89.5497 267.224 83.7662 270.009 77.1647L269.087 76.776ZM257.687 93.8L256.988 93.0855C252.219 97.7548 246.603 101.435 240.128 104.125L240.511 105.048L240.895 105.971C247.594 103.189 253.428 99.3706 258.387 94.5145L257.687 93.8ZM240.511 105.048L240.14 104.12C233.68 106.704 226.713 108 219.231 108V109V110C226.949 110 234.17 108.662 240.883 105.976L240.511 105.048ZM219.231 109V108H190.503V109V110H219.231V109ZM178.495 109H179.495V2.59999H178.495H177.495V109H178.495ZM178.495 2.59999V3.59999H195.975V2.59999V1.59999H178.495V2.59999ZM195.975 2.59999H194.975V109H195.975H196.975V2.59999H195.975ZM195.975 109V108H178.495V109V110H195.975V109ZM287.971 109H286.971V110H287.971V109ZM287.971 2.59999V1.59999H286.971V2.59999H287.971ZM305.451 2.59999H306.451V1.59999H305.451V2.59999ZM305.451 109V110H306.451V109H305.451ZM287.971 109H288.971V2.59999H287.971H286.971V109H287.971ZM287.971 2.59999V3.59999H305.451V2.59999V1.59999H287.971V2.59999ZM305.451 2.59999H304.451V109H305.451H306.451V2.59999H305.451ZM305.451 109V108H287.971V109V110H305.451V109ZM331.584 105.96L332.044 105.072L331.584 105.96ZM315.776 92.584L315.069 91.8769L314.439 92.5071L314.993 93.2054L315.776 92.584ZM327.632 80.728L328.455 80.1598L327.774 79.1726L326.925 80.0209L327.632 80.728ZM338.12 90.76L337.606 91.6175L337.614 91.6223L337.622 91.6269L338.12 90.76ZM367.608 90.608L367.043 89.7832L367.032 89.791L367.608 90.608ZM370.192 71.912L369.418 72.5452L370.192 71.912ZM362.896 66.44L362.437 67.3282L362.455 67.3376L362.473 67.3462L362.896 66.44ZM353.016 62.488L352.692 63.4339L352.708 63.4394L352.724 63.4444L353.016 62.488ZM342.224 58.536L341.83 59.4551L341.846 59.4618L341.862 59.468L342.224 58.536ZM332.344 52.912L331.74 53.7087L331.746 53.7136L331.753 53.7184L332.344 52.912ZM325.2 44.248L326.09 43.7906V43.7906L325.2 44.248ZM327.024 14.76L326.207 14.184L326.204 14.1878L327.024 14.76ZM375.968 5.184L375.521 6.07845L375.528 6.08166L375.968 5.184ZM389.496 15.672L390.203 16.3791L390.84 15.7425L390.274 15.0428L389.496 15.672ZM377.64 27.528L376.891 28.1896L377.595 28.9878L378.347 28.2351L377.64 27.528ZM368.064 19.928L367.595 20.8111L367.612 20.8198L367.628 20.8278L368.064 19.928ZM344.352 20.536L343.779 19.7168L343.772 19.7214L343.766 19.7261L344.352 20.536ZM342.68 37.408L341.937 38.077L341.946 38.0865L341.954 38.0957L342.68 37.408ZM349.824 42.424L349.39 43.3245L349.408 43.3334L349.427 43.3416L349.824 42.424ZM359.704 46.224L359.38 47.17L359.388 47.1727L359.704 46.224ZM370.496 50.328L370.102 51.2472L370.112 51.2511L370.496 50.328ZM380.376 56.256L379.739 57.0264L379.753 57.0383L379.768 57.0496L380.376 56.256ZM387.672 65.376L386.773 65.8135L387.672 65.376ZM380.224 102.16L379.59 101.387L379.584 101.392L380.224 102.16ZM353.016 110.52V109.52C344.723 109.52 337.746 108.021 332.044 105.072L331.584 105.96L331.125 106.848C337.178 109.979 344.488 111.52 353.016 111.52V110.52ZM331.584 105.96L332.044 105.072C326.308 102.105 321.145 97.7439 316.56 91.9626L315.776 92.584L314.993 93.2054C319.73 99.1788 325.106 103.735 331.125 106.848L331.584 105.96ZM315.776 92.584L316.483 93.2911L328.339 81.4351L327.632 80.728L326.925 80.0209L315.069 91.8769L315.776 92.584ZM327.632 80.728L326.809 81.2962C329.821 85.6583 333.419 89.1055 337.606 91.6175L338.12 90.76L338.635 89.9025C334.715 87.5505 331.321 84.3097 328.455 80.1598L327.632 80.728ZM338.12 90.76L337.622 91.6269C341.87 94.0697 347.225 95.256 353.624 95.256V94.256V93.256C347.459 93.256 342.477 92.1116 338.619 89.8931L338.12 90.76ZM353.624 94.256V95.256C359.629 95.256 364.516 94.0147 368.185 91.425L367.608 90.608L367.032 89.791C363.81 92.0653 359.374 93.256 353.624 93.256V94.256ZM367.608 90.608L368.174 91.4327C371.989 88.8166 373.928 85.1658 373.928 80.576H372.928H371.928C371.928 84.4982 370.321 87.5354 367.043 89.7833L367.608 90.608ZM372.928 80.576H373.928C373.928 76.8536 372.968 73.7252 370.966 71.2788L370.192 71.912L369.418 72.5452C371.065 74.5575 371.928 77.2051 371.928 80.576H372.928ZM370.192 71.912L370.966 71.2788C369.033 68.9156 366.473 67.0055 363.319 65.5338L362.896 66.44L362.473 67.3462C365.4 68.7118 367.704 70.4497 369.418 72.5452L370.192 71.912ZM362.896 66.44L363.356 65.5518C360.356 64.0003 357.006 62.6613 353.309 61.5316L353.016 62.488L352.724 63.4444C356.323 64.544 359.559 65.8397 362.437 67.3282L362.896 66.44ZM353.016 62.488L353.341 61.5421C349.807 60.3306 346.223 59.018 342.587 57.604L342.224 58.536L341.862 59.468C345.522 60.8914 349.132 62.2134 352.692 63.4339L353.016 62.488ZM342.224 58.536L342.618 57.6169C339.14 56.1261 335.913 54.2889 332.936 52.1056L332.344 52.912L331.753 53.7184C334.856 55.9938 338.216 57.9059 341.83 59.4551L342.224 58.536ZM332.344 52.912L332.949 52.1153C330.139 49.9835 327.851 47.2153 326.09 43.7906L325.2 44.248L324.311 44.7053C326.198 48.374 328.673 51.3818 331.74 53.7087L332.344 52.912ZM325.2 44.248L326.09 43.7906C324.36 40.4281 323.464 36.089 323.464 30.72H322.464H321.464C321.464 36.295 322.392 40.9745 324.311 44.7053L325.2 44.248ZM322.464 30.72H323.464C323.464 24.6037 324.942 19.4928 327.845 15.3322L327.024 14.76L326.204 14.1878C323.027 18.7418 321.464 24.271 321.464 30.72H322.464ZM327.024 14.76L327.842 15.336C330.873 11.034 334.932 7.75217 340.045 5.49053L339.64 4.57599L339.236 3.66146C333.81 6.06115 329.459 9.56869 326.207 14.184L327.024 14.76ZM339.64 4.57599L340.045 5.49053C345.172 3.22289 350.909 2.07999 357.272 2.07999V1.07999V0.0799942C350.665 0.0799942 344.648 1.26776 339.236 3.66146L339.64 4.57599ZM357.272 1.07999V2.07999C364.131 2.07999 370.207 3.42117 375.521 6.07842L375.968 5.184L376.416 4.28957C370.786 1.47482 364.397 0.0799942 357.272 0.0799942V1.07999ZM375.968 5.184L375.528 6.08166C380.988 8.76225 385.377 12.1723 388.719 16.3012L389.496 15.672L390.274 15.0428C386.725 10.6597 382.095 7.07774 376.409 4.28633L375.968 5.184ZM389.496 15.672L388.789 14.9649L376.933 26.8209L377.64 27.528L378.347 28.2351L390.203 16.3791L389.496 15.672ZM377.64 27.528L378.39 26.8664C375.283 23.3444 371.989 20.7193 368.501 19.0282L368.064 19.928L367.628 20.8278C370.828 22.3794 373.918 24.8209 376.891 28.1896L377.64 27.528ZM368.064 19.928L368.534 19.0449C365.125 17.2341 361.21 16.344 356.816 16.344V17.344V18.344C360.935 18.344 364.518 19.1766 367.595 20.8111L368.064 19.928ZM356.816 17.344V16.344C351.425 16.344 347.044 17.4311 343.779 19.7168L344.352 20.536L344.926 21.3552C347.741 19.3849 351.669 18.344 356.816 18.344V17.344ZM344.352 20.536L343.766 19.7261C340.549 22.0553 338.944 25.3557 338.944 29.504H339.944H340.944C340.944 25.9509 342.278 23.2727 344.939 21.3459L344.352 20.536ZM339.944 29.504H338.944C338.944 32.9443 339.918 35.833 341.937 38.077L342.68 37.408L343.424 36.739C341.795 34.9297 340.944 32.549 340.944 29.504H339.944ZM342.68 37.408L341.954 38.0957C343.879 40.1267 346.366 41.8649 349.39 43.3245L349.824 42.424L350.259 41.5234C347.405 40.1457 345.13 38.5399 343.406 36.7203L342.68 37.408ZM349.824 42.424L349.427 43.3416C352.494 44.6706 355.812 45.9465 359.38 47.1699L359.704 46.224L360.029 45.278C356.504 44.0695 353.235 42.8121 350.222 41.5064L349.824 42.424ZM359.704 46.224L359.388 47.1727C363.01 48.3799 366.581 49.738 370.102 51.2471L370.496 50.328L370.89 49.4089C367.318 47.878 363.695 46.5001 360.021 45.2753L359.704 46.224ZM370.496 50.328L370.112 51.2511C373.672 52.7344 376.879 54.6598 379.739 57.0264L380.376 56.256L381.014 55.4856C377.996 52.9882 374.617 50.9616 370.881 49.4049L370.496 50.328ZM380.376 56.256L379.768 57.0496C382.674 59.2776 385.011 62.1912 386.773 65.8135L387.672 65.376L388.572 64.9385C386.686 61.0621 384.159 57.8957 380.985 55.4624L380.376 56.256ZM387.672 65.376L386.773 65.8135C388.511 69.3865 389.408 73.9371 389.408 79.512H390.408H391.408C391.408 73.7376 390.481 68.8642 388.572 64.9385L387.672 65.376ZM390.408 79.512H389.408C389.408 88.7668 386.126 96.0212 379.59 101.387L380.224 102.16L380.859 102.933C387.901 97.1521 391.408 89.3079 391.408 79.512H390.408ZM380.224 102.16L379.584 101.392C373.126 106.774 364.308 109.52 353.016 109.52V110.52V111.52C364.626 111.52 373.947 108.693 380.865 102.928L380.224 102.16ZM444.195 109H443.195V110H444.195V109ZM444.195 93.04V92.04H443.195V93.04H444.195ZM491.315 88.328L490.824 87.4568L490.817 87.4607L491.315 88.328ZM504.235 75.256L503.36 74.7717L503.357 74.7771L504.235 75.256ZM504.235 36.344L503.364 36.835L504.235 36.344ZM491.163 23.272L490.665 24.1393L490.672 24.1432L491.163 23.272ZM444.195 18.56H443.195V19.56H444.195V18.56ZM444.195 2.59999V1.59999H443.195V2.59999H444.195ZM494.051 6.70399L493.667 7.62757L493.68 7.63247L494.051 6.70399ZM511.227 17.952L510.52 18.6591L510.527 18.6665L510.535 18.6737L511.227 17.952ZM522.779 34.824L521.858 35.2127L521.86 35.2179L522.779 34.824ZM511.379 93.8L512.079 94.5145L512.086 94.5071L511.379 93.8ZM494.203 105.048L494.574 105.977L494.587 105.971L494.203 105.048ZM432.187 109H431.187V110H432.187V109ZM432.187 2.59999V1.59999H431.187V2.59999H432.187ZM449.667 2.59999H450.667V1.59999H449.667V2.59999ZM449.667 109V110H450.667V109H449.667ZM444.195 109H445.195V93.04H444.195H443.195V109H444.195ZM444.195 93.04V94.04H472.163V93.04V92.04H444.195V93.04ZM472.163 93.04V94.04C479.606 94.04 486.167 92.4364 491.813 89.1953L491.315 88.328L490.817 87.4607C485.519 90.5023 479.312 92.04 472.163 92.04V93.04ZM491.315 88.328L491.806 89.1992C497.541 85.9666 501.982 81.4739 505.113 75.7348L504.235 75.256L503.357 74.7771C500.408 80.1847 496.236 84.4067 490.824 87.4568L491.315 88.328ZM504.235 75.256L505.11 75.7403C508.344 69.8977 509.947 63.1907 509.947 55.648H508.947H507.947C507.947 62.9 506.408 69.265 503.36 74.7717L504.235 75.256ZM508.947 55.648H509.947C509.947 48.2045 508.343 41.5962 505.106 35.853L504.235 36.344L503.364 36.835C506.409 42.2385 507.947 48.4995 507.947 55.648H508.947ZM504.235 36.344L505.106 35.853C501.875 30.1206 497.386 25.6318 491.654 22.4008L491.163 23.272L490.672 24.1432C496.086 27.1948 500.312 31.4207 503.364 36.835L504.235 36.344ZM491.163 23.272L491.661 22.4047C486.017 19.1648 479.507 17.56 472.163 17.56V18.56V19.56C479.208 19.56 485.365 21.0965 490.665 24.1393L491.163 23.272ZM472.163 18.56V17.56H444.195V18.56V19.56H472.163V18.56ZM444.195 18.56H445.195V2.59999H444.195H443.195V18.56H444.195ZM444.195 2.59999V3.59999H472.619V2.59999V1.59999H444.195V2.59999ZM472.619 2.59999V3.59999C480.199 3.59999 487.212 4.94591 493.667 7.62749L494.051 6.70399L494.435 5.7805C487.717 2.99008 480.441 1.59999 472.619 1.59999V2.59999ZM494.051 6.70399L493.68 7.63247C500.145 10.2185 505.755 13.8939 510.52 18.6591L511.227 17.952L511.934 17.2449C506.971 12.2821 501.131 8.45887 494.422 5.77552L494.051 6.70399ZM511.227 17.952L510.535 18.6737C515.4 23.3399 519.173 28.8498 521.858 35.2127L522.779 34.824L523.7 34.4353C520.913 27.8275 516.985 22.0894 511.919 17.2303L511.227 17.952ZM522.779 34.824L521.86 35.2179C524.538 41.4661 525.883 48.3226 525.883 55.8H526.883H527.883C527.883 48.0774 526.492 40.9498 523.698 34.4301L522.779 34.824ZM526.883 55.8H525.883C525.883 63.174 524.538 70.0329 521.858 76.3873L522.779 76.776L523.7 77.1647C526.492 70.5485 527.883 63.4233 527.883 55.8H526.883ZM522.779 76.776L521.858 76.3873C519.171 82.7565 515.442 88.3223 510.672 93.0929L511.379 93.8L512.086 94.5071C517.044 89.5497 520.915 83.7662 523.7 77.1647L522.779 76.776ZM511.379 93.8L510.679 93.0855C505.911 97.7548 500.294 101.435 493.819 104.125L494.203 105.048L494.587 105.971C501.285 103.189 507.119 99.3706 512.079 94.5145L511.379 93.8ZM494.203 105.048L493.832 104.12C487.371 106.704 480.405 108 472.923 108V109V110C480.641 110 487.861 108.662 494.574 105.976L494.203 105.048ZM472.923 109V108H444.195V109V110H472.923V109ZM432.187 109H433.187V2.59999H432.187H431.187V109H432.187ZM432.187 2.59999V3.59999H449.667V2.59999V1.59999H432.187V2.59999ZM449.667 2.59999H448.667V109H449.667H450.667V2.59999H449.667ZM449.667 109V108H432.187V109V110H449.667V109ZM541.663 109H540.663V110H541.663V109ZM541.663 2.59999V1.59999H540.663V2.59999H541.663ZM559.143 2.59999H560.143V1.59999H559.143V2.59999ZM559.143 109V110H560.143V109H559.143ZM541.663 109H542.663V2.59999H541.663H540.663V109H541.663ZM541.663 2.59999V3.59999H559.143V2.59999V1.59999H541.663V2.59999ZM559.143 2.59999H558.143V109H559.143H560.143V2.59999H559.143ZM559.143 109V108H541.663V109V110H559.143V109ZM606.506 106.264L606.105 107.18L606.506 106.264ZM589.482 94.56L588.761 95.2526L588.768 95.2598L589.482 94.56ZM577.93 77.08L577.005 77.4586L577.008 77.4672L577.012 77.4756L577.93 77.08ZM577.93 34.368L577.012 33.9723L577.007 33.9844L577.93 34.368ZM589.482 17.04L588.768 16.3401L588.768 16.3402L589.482 17.04ZM606.81 5.33599L607.194 6.25952L607.201 6.25657L606.81 5.33599ZM651.802 5.94399L652.213 5.03231L651.802 5.94399ZM669.89 19.776L670.597 20.4831L671.235 19.845L670.666 19.1449L669.89 19.776ZM658.034 31.632L657.217 32.208L657.901 33.1793L658.741 32.3391L658.034 31.632ZM645.418 21.448L644.999 22.356L645.006 22.3593L645.014 22.3625L645.418 21.448ZM609.09 22.664L609.588 23.5313L609.593 23.5283L609.09 22.664ZM596.322 35.888L595.441 35.4158L596.322 35.888ZM596.322 75.56L595.437 76.0257L595.442 76.0351L595.447 76.0443L596.322 75.56ZM608.938 88.936L609.462 88.0843L608.938 88.936ZM645.114 90L645.561 90.8945L645.568 90.8909L645.114 90ZM656.97 78.448L657.85 78.9232L657.854 78.9159L656.97 78.448ZM661.074 59.448L661.66 58.6373L660.074 57.4922V59.448H661.074ZM672.018 67.352V68.352H675.111L672.604 66.5413L672.018 67.352ZM626.57 67.352H625.57V68.352H626.57V67.352ZM626.57 51.392V50.392H625.57V51.392H626.57ZM679.162 51.392H680.162V50.392H679.162V51.392ZM672.322 85.44L671.443 84.9634L671.439 84.9716L672.322 85.44ZM653.93 104.288L653.46 103.405L653.93 104.288ZM627.178 110.52V109.52C620.016 109.52 613.262 108.128 606.907 105.348L606.506 106.264L606.105 107.18C612.721 110.075 619.748 111.52 627.178 111.52V110.52ZM606.506 106.264L606.907 105.348C600.537 102.561 594.969 98.7323 590.196 93.8602L589.482 94.56L588.768 95.2598C593.723 100.318 599.505 104.292 606.105 107.18L606.506 106.264ZM589.482 94.56L590.203 93.8675C585.424 88.889 581.639 83.1634 578.848 76.6844L577.93 77.08L577.012 77.4756C579.895 84.1699 583.812 90.0976 588.761 95.2525L589.482 94.56ZM577.93 77.08L578.856 76.7014C576.171 70.1397 574.826 63.125 574.826 55.648H573.826H572.826C572.826 63.371 574.217 70.6443 577.005 77.4586L577.93 77.08ZM573.826 55.648H574.826C574.826 48.1709 576.171 41.2089 578.854 34.7516L577.93 34.368L577.007 33.9844C574.217 40.7005 572.826 47.9251 572.826 55.648H573.826ZM577.93 34.368L578.848 34.7636C581.639 28.2864 585.421 22.6143 590.196 17.7398L589.482 17.04L588.768 16.3402C583.815 21.3963 579.896 27.2763 577.012 33.9724L577.93 34.368ZM589.482 17.04L590.196 17.7399C595.067 12.7698 600.73 8.94423 607.194 6.25949L606.81 5.33599L606.426 4.4125C599.716 7.19976 593.828 11.1769 588.768 16.3401L589.482 17.04ZM606.81 5.33599L607.201 6.25657C613.758 3.47476 620.819 2.07999 628.394 2.07999V1.07999V0.0799942C620.567 0.0799942 613.238 1.52256 606.419 4.41541L606.81 5.33599ZM628.394 1.07999V2.07999C636.673 2.07999 644.334 3.675 651.391 6.85568L651.802 5.94399L652.213 5.03231C644.881 1.72766 636.937 0.0799942 628.394 0.0799942V1.07999ZM651.802 5.94399L651.391 6.85568C658.448 10.036 664.351 14.552 669.114 20.4071L669.89 19.776L670.666 19.1449C665.701 13.0427 659.546 8.33729 652.213 5.03231L651.802 5.94399ZM669.89 19.776L669.183 19.0689L657.327 30.9249L658.034 31.632L658.741 32.3391L670.597 20.4831L669.89 19.776ZM658.034 31.632L658.852 31.056C655.6 26.4407 651.248 22.9332 645.823 20.5335L645.418 21.448L645.014 22.3625C650.127 24.6242 654.186 27.906 657.217 32.208L658.034 31.632ZM645.418 21.448L645.837 20.54C640.43 18.0445 634.612 16.8 628.394 16.8V17.8V18.8C634.336 18.8 639.867 19.9875 644.999 22.356L645.418 21.448ZM628.394 17.8V16.8C620.945 16.8 614.332 18.4569 608.587 21.7996L609.09 22.664L609.593 23.5283C614.994 20.3857 621.251 18.8 628.394 18.8V17.8ZM609.09 22.664L608.592 21.7967C602.954 25.0332 598.567 29.5797 595.441 35.4158L596.322 35.888L597.204 36.3602C600.157 30.847 604.282 26.5774 609.588 23.5312L609.09 22.664ZM596.322 35.888L595.441 35.4158C592.311 41.2579 590.762 48.0118 590.762 55.648H591.762H592.762C592.762 48.2868 594.253 41.8674 597.204 36.3602L596.322 35.888ZM591.762 55.648H590.762C590.762 63.2846 592.311 70.0861 595.437 76.0257L596.322 75.56L597.207 75.0943C594.253 69.4819 592.762 63.0087 592.762 55.648H591.762ZM596.322 75.56L595.447 76.0443C598.668 81.862 602.991 86.4504 608.414 89.7877L608.938 88.936L609.462 88.0843C604.347 84.9363 600.259 80.6073 597.197 75.0757L596.322 75.56ZM608.938 88.936L608.414 89.7877C613.854 93.1352 620.017 94.8 626.874 94.8V93.8V92.8C620.356 92.8 614.561 91.2222 609.462 88.0843L608.938 88.936ZM626.874 93.8V94.8C634.084 94.8 640.325 93.5125 645.561 90.8944L645.114 90L644.667 89.1056C639.77 91.5542 633.85 92.8 626.874 92.8V93.8ZM645.114 90L645.568 90.8909C650.916 88.1648 655.017 84.1698 657.85 78.9231L656.97 78.448L656.09 77.9729C653.451 82.8595 649.648 86.5659 644.66 89.1091L645.114 90ZM656.97 78.448L657.854 78.9159C660.685 73.5687 662.074 67.065 662.074 59.448H661.074H660.074C660.074 66.8284 658.727 72.9912 656.086 77.9801L656.97 78.448ZM661.074 59.448L660.489 60.2587L671.433 68.1627L672.018 67.352L672.604 66.5413L661.66 58.6373L661.074 59.448ZM672.018 67.352V66.352H626.57V67.352V68.352H672.018V67.352ZM626.57 67.352H627.57V51.392H626.57H625.57V67.352H626.57ZM626.57 51.392V52.392H679.162V51.392V50.392H626.57V51.392ZM679.162 51.392H678.162V53.824H679.162H680.162V51.392H679.162ZM679.162 53.824H678.162C678.162 66.3762 675.902 76.7388 671.443 84.9634L672.322 85.44L673.201 85.9166C677.862 77.3199 680.162 66.6051 680.162 53.824H679.162ZM672.322 85.44L671.439 84.9716C667.066 93.2203 661.073 99.3517 653.46 103.405L653.93 104.288L654.4 105.171C662.393 100.915 668.661 94.4811 673.206 85.9084L672.322 85.44ZM653.93 104.288L653.46 103.405C645.821 107.473 637.068 109.52 627.178 109.52V110.52V111.52C637.352 111.52 646.434 109.412 654.4 105.171L653.93 104.288ZM693.52 109H692.52V110H693.52V109ZM693.52 2.59999V1.59999H692.52V2.59999H693.52ZM711 2.59999H712V1.59999H711V2.59999ZM711 109V110H712V109H711ZM693.52 109H694.52V2.59999H693.52H692.52V109H693.52ZM693.52 2.59999V3.59999H711V2.59999V1.59999H693.52V2.59999ZM711 2.59999H710V109H711H712V2.59999H711ZM711 109V108H693.52V109V110H711V109ZM757.756 109H756.756V110H757.756V109ZM757.756 5.64V4.64H756.756V5.64H757.756ZM775.236 5.64H776.236V4.64H775.236V5.64ZM775.236 109V110H776.236V109H775.236ZM723.1 18.56H722.1V19.56H723.1V18.56ZM723.1 2.59999V1.59999H722.1V2.59999H723.1ZM809.892 2.59999H810.892V1.59999H809.892V2.59999ZM809.892 18.56V19.56H810.892V18.56H809.892ZM757.756 109H758.756V5.64H757.756H756.756V109H757.756ZM757.756 5.64V6.64H775.236V5.64V4.64H757.756V5.64ZM775.236 5.64H774.236V109H775.236H776.236V5.64H775.236ZM775.236 109V108H757.756V109V110H775.236V109ZM723.1 18.56H724.1V2.59999H723.1H722.1V18.56H723.1ZM723.1 2.59999V3.59999H809.892V2.59999V1.59999H723.1V2.59999ZM809.892 2.59999H808.892V18.56H809.892H810.892V2.59999H809.892ZM809.892 18.56V17.56H723.1V18.56V19.56H809.892V18.56ZM799.474 109L798.549 108.62L797.981 110H799.474V109ZM843.25 2.59999V1.59999H842.58L842.325 2.21951L843.25 2.59999ZM855.41 2.59999L856.335 2.22177L856.081 1.59999H855.41V2.59999ZM898.882 109V110H900.37L899.807 108.622L898.882 109ZM880.034 109L879.104 109.367L879.353 110H880.034V109ZM845.986 22.816V21.816H844.515L845.056 23.1834L845.986 22.816ZM852.37 22.816L853.299 23.1863L853.845 21.816H852.37V22.816ZM818.018 109V110H818.696L818.947 109.37L818.018 109ZM821.058 88.48H820.058V89.48H821.058V88.48ZM821.058 73.28V72.28H820.058V73.28H821.058ZM877.45 73.28H878.45V72.28H877.45V73.28ZM877.45 88.48V89.48H878.45V88.48H877.45ZM799.474 109L800.398 109.38L844.174 2.98048L843.25 2.59999L842.325 2.21951L798.549 108.62L799.474 109ZM843.25 2.59999V3.59999H855.41V2.59999V1.59999H843.25V2.59999ZM855.41 2.59999L854.484 2.97821L897.956 109.378L898.882 109L899.807 108.622L856.335 2.22177L855.41 2.59999ZM898.882 109V108H880.034V109V110H898.882V109ZM880.034 109L880.964 108.633L846.916 22.4486L845.986 22.816L845.056 23.1834L879.104 109.367L880.034 109ZM845.986 22.816V23.816H852.37V22.816V21.816H845.986V22.816ZM852.37 22.816L851.441 22.4457L817.089 108.63L818.018 109L818.947 109.37L853.299 23.1863L852.37 22.816ZM818.018 109V108H799.474V109V110H818.018V109ZM821.058 88.48H822.058V73.28H821.058H820.058V88.48H821.058ZM821.058 73.28V74.28H877.45V73.28V72.28H821.058V73.28ZM877.45 73.28H876.45V88.48H877.45H878.45V73.28H877.45ZM877.45 88.48V87.48H821.058V88.48V89.48H877.45V88.48ZM909.877 109H908.877V110H909.877V109ZM909.877 2.59999V1.59999H908.877V2.59999H909.877ZM927.357 2.59999H928.357V1.59999H927.357V2.59999ZM927.357 109V110H928.357V109H927.357ZM921.885 109H920.885V110H921.885V109ZM921.885 93.04V92.04H920.885V93.04H921.885ZM977.517 93.04H978.517V92.04H977.517V93.04ZM977.517 109V110H978.517V109H977.517ZM909.877 109H910.877V2.59999H909.877H908.877V109H909.877ZM909.877 2.59999V3.59999H927.357V2.59999V1.59999H909.877V2.59999ZM927.357 2.59999H926.357V109H927.357H928.357V2.59999H927.357ZM927.357 109V108H909.877V109V110H927.357V109ZM921.885 109H922.885V93.04H921.885H920.885V109H921.885ZM921.885 93.04V94.04H977.517V93.04V92.04H921.885V93.04ZM977.517 93.04H976.517V109H977.517H978.517V93.04H977.517ZM977.517 109V108H921.885V109V110H977.517V109Z" fill="#E21E3C" fill-opacity="0.2" mask="url(#path-1-outside-1_415_853)"/>
</svg>
