<svg width="1079" height="133" viewBox="0 0 1079 133" fill="none" xmlns="http://www.w3.org/2000/svg">
<mask id="path-1-outside-1_4_13" maskUnits="userSpaceOnUse" x="-0.646016" y="-0.839996" width="1080" height="134" fill="black">
<rect fill="white" x="-0.646016" y="-0.839996" width="1080" height="134"/>
<path d="M33.8715 129.16L1.29146 3.16H16.7715L45.5715 118H46.2915L79.4115 3.16H94.8915L128.731 118H129.451L158.071 3.16H173.551L140.431 129.16H117.031L87.3315 29.8H86.6115L57.2715 129.16H33.8715ZM164.459 129.16L207.479 3.16H230.879L273.179 129.16H257.159L219.539 14.32H218.819L180.299 129.16H164.459ZM185.699 89.74L190.019 77.5H247.079L251.399 89.74H185.699ZM284.025 129.16V3.16H299.145V129.16H284.025ZM317.114 129.16V3.16H332.234V58.96L384.794 3.16H403.874L345.734 64.18L404.594 129.16H385.334L332.234 70.84V129.16H317.114ZM415.418 129.16V3.16H493.358V15.58H430.538V59.5H487.958V71.74H430.538V116.74H493.358V129.16H415.418ZM508.624 129.16V3.16H549.304C559.144 3.16 567.184 4.83999 573.424 8.19999C579.664 11.44 584.284 15.82 587.284 21.34C590.284 26.86 591.784 33.1 591.784 40.06C591.784 46.78 590.224 52.96 587.104 58.6C584.104 64.24 579.424 68.74 573.064 72.1C566.704 75.46 558.544 77.14 548.584 77.14H523.744V129.16H508.624ZM575.224 129.16L547.504 72.82H564.424L593.044 129.16H575.224ZM523.744 65.26H548.224C557.824 65.26 564.844 62.92 569.284 58.24C573.844 53.56 576.124 47.56 576.124 40.24C576.124 32.8 573.904 26.92 569.464 22.6C565.144 18.16 558.004 15.94 548.044 15.94H523.744V65.26ZM647.638 131.32C638.398 131.32 630.358 129.64 623.518 126.28C616.678 122.92 611.398 118.24 607.678 112.24C603.958 106.24 602.098 99.28 602.098 91.36H617.938C617.938 96.28 619.018 100.84 621.178 105.04C623.338 109.12 626.638 112.42 631.078 114.94C635.518 117.34 641.098 118.54 647.818 118.54C653.218 118.54 657.958 117.76 662.038 116.2C666.118 114.64 669.298 112.3 671.578 109.18C673.978 106.06 675.178 102.16 675.178 97.48C675.178 92.8 674.098 88.96 671.938 85.96C669.898 82.84 667.078 80.26 663.478 78.22C659.878 76.18 655.858 74.44 651.418 73C647.098 71.44 642.658 69.88 638.098 68.32C627.178 64.48 619.138 59.86 613.978 54.46C608.938 48.94 606.418 42.16 606.418 34.12C606.418 27.76 607.978 22.12 611.098 17.2C614.338 12.16 618.898 8.2 624.778 5.32C630.778 2.44 637.858 1 646.018 1C654.058 1 661.018 2.5 666.898 5.5C672.898 8.49999 677.578 12.64 680.938 17.92C684.298 23.08 685.978 29.08 685.978 35.92H670.138C670.138 31.48 669.178 27.58 667.258 24.22C665.338 20.86 662.518 18.22 658.798 16.3C655.078 14.26 650.398 13.24 644.758 13.24C640.318 13.24 636.298 13.9 632.698 15.22C629.218 16.54 626.458 18.64 624.418 21.52C622.498 24.4 621.538 28.12 621.538 32.68C621.538 36.52 622.318 39.7 623.878 42.22C625.438 44.74 627.718 46.96 630.718 48.88C633.838 50.68 637.618 52.48 642.058 54.28C646.618 55.96 651.838 57.88 657.718 60.04C663.838 62.2 669.298 64.78 674.098 67.78C679.018 70.66 682.858 74.32 685.618 78.76C688.498 83.2 689.938 88.84 689.938 95.68C689.938 101.8 688.378 107.62 685.258 113.14C682.138 118.54 677.458 122.92 671.218 126.28C664.978 129.64 657.118 131.32 647.638 131.32ZM822.648 129.16V3.16H837.768V129.16H822.648ZM742.188 129.16V3.16H757.308V129.16H742.188ZM754.428 71.2V58.78H826.428V71.2H754.428ZM852.496 129.16V39.88H867.616V129.16H852.496ZM860.056 22.06C857.056 22.06 854.536 21.04 852.496 19C850.456 16.96 849.436 14.44 849.436 11.44C849.436 8.56 850.456 6.1 852.496 4.05999C854.536 2.02 857.056 1 860.056 1C862.936 1 865.396 2.02 867.436 4.05999C869.476 6.1 870.496 8.62 870.496 11.62C870.496 14.5 869.476 16.96 867.436 19C865.396 21.04 862.936 22.06 860.056 22.06ZM923.464 129.16L880.444 3.16H896.644L935.164 118H935.884L973.684 3.16H989.164L946.864 129.16H923.464ZM1000.01 129.16V3.16H1077.95V15.58H1015.13V59.5H1072.55V71.74H1015.13V116.74H1077.95V129.16H1000.01Z"/>
</mask>
<path d="M33.8715 129.16L32.9033 129.41L33.0971 130.16H33.8715V129.16ZM1.29146 3.16V2.16H-1.64907e-07L0.323302 3.41033L1.29146 3.16ZM16.7715 3.16L17.7414 2.91674L17.5516 2.16H16.7715V3.16ZM45.5715 118L44.6015 118.243L44.7913 119H45.5715V118ZM46.2915 118V119H47.0438L47.2523 118.277L46.2915 118ZM79.4115 3.16V2.16H78.6591L78.4506 2.88289L79.4115 3.16ZM94.8915 3.16L95.8507 2.87734L95.6393 2.16H94.8915V3.16ZM128.731 118L127.772 118.283L127.984 119H128.731V118ZM129.451 118V119H130.233L130.422 118.242L129.451 118ZM158.071 3.16V2.16H157.29L157.101 2.91818L158.071 3.16ZM173.551 3.16L174.519 3.41422L174.848 2.16H173.551V3.16ZM140.431 129.16V130.16H141.203L141.399 129.414L140.431 129.16ZM117.031 129.16L116.073 129.446L116.287 130.16H117.031V129.16ZM87.3315 29.8L88.2896 29.5136L88.0763 28.8H87.3315V29.8ZM86.6115 29.8V28.8H85.8641L85.6524 29.5168L86.6115 29.8ZM57.2715 129.16V130.16H58.0189L58.2305 129.443L57.2715 129.16ZM33.8715 129.16L34.8396 128.91L2.25962 2.90966L1.29146 3.16L0.323302 3.41033L32.9033 129.41L33.8715 129.16ZM1.29146 3.16V4.16H16.7715V3.16V2.16H1.29146V3.16ZM16.7715 3.16L15.8015 3.40325L44.6015 118.243L45.5715 118L46.5414 117.757L17.7414 2.91674L16.7715 3.16ZM45.5715 118V119H46.2915V118V117H45.5715V118ZM46.2915 118L47.2523 118.277L80.3723 3.4371L79.4115 3.16L78.4506 2.88289L45.3306 117.723L46.2915 118ZM79.4115 3.16V4.16H94.8915V3.16V2.16H79.4115V3.16ZM94.8915 3.16L93.9322 3.44265L127.772 118.283L128.731 118L129.691 117.717L95.8507 2.87734L94.8915 3.16ZM128.731 118V119H129.451V118V117H128.731V118ZM129.451 118L130.422 118.242L159.042 3.40181L158.071 3.16L157.101 2.91818L128.481 117.758L129.451 118ZM158.071 3.16V4.16H173.551V3.16V2.16H158.071V3.16ZM173.551 3.16L172.584 2.90577L139.464 128.906L140.431 129.16L141.399 129.414L174.519 3.41422L173.551 3.16ZM140.431 129.16V128.16H117.031V129.16V130.16H140.431V129.16ZM117.031 129.16L117.99 128.874L88.2896 29.5136L87.3315 29.8L86.3733 30.0864L116.073 129.446L117.031 129.16ZM87.3315 29.8V28.8H86.6115V29.8V30.8H87.3315V29.8ZM86.6115 29.8L85.6524 29.5168L56.3124 128.877L57.2715 129.16L58.2305 129.443L87.5705 30.0832L86.6115 29.8ZM57.2715 129.16V128.16H33.8715V129.16V130.16H57.2715V129.16ZM164.459 129.16L163.512 128.837L163.061 130.16H164.459V129.16ZM207.479 3.16V2.16H206.763L206.532 2.83688L207.479 3.16ZM230.879 3.16L231.827 2.84174L231.598 2.16H230.879V3.16ZM273.179 129.16V130.16H274.569L274.127 128.842L273.179 129.16ZM257.159 129.16L256.208 129.471L256.434 130.16H257.159V129.16ZM219.539 14.32L220.489 14.0087L220.263 13.32H219.539V14.32ZM218.819 14.32V13.32H218.099L217.871 14.002L218.819 14.32ZM180.299 129.16V130.16H181.018L181.247 129.478L180.299 129.16ZM185.699 89.74L184.756 89.4072L184.285 90.74H185.699V89.74ZM190.019 77.5V76.5H189.311L189.076 77.1672L190.019 77.5ZM247.079 77.5L248.022 77.1672L247.786 76.5H247.079V77.5ZM251.399 89.74V90.74H252.812L252.342 89.4072L251.399 89.74ZM164.459 129.16L165.405 129.483L208.425 3.48311L207.479 3.16L206.532 2.83688L163.512 128.837L164.459 129.16ZM207.479 3.16V4.16H230.879V3.16V2.16H207.479V3.16ZM230.879 3.16L229.931 3.47825L272.231 129.478L273.179 129.16L274.127 128.842L231.827 2.84174L230.879 3.16ZM273.179 129.16V128.16H257.159V129.16V130.16H273.179V129.16ZM257.159 129.16L258.109 128.849L220.489 14.0087L219.539 14.32L218.588 14.6313L256.208 129.471L257.159 129.16ZM219.539 14.32V13.32H218.819V14.32V15.32H219.539V14.32ZM218.819 14.32L217.871 14.002L179.351 128.842L180.299 129.16L181.247 129.478L219.767 14.638L218.819 14.32ZM180.299 129.16V128.16H164.459V129.16V130.16H180.299V129.16ZM185.699 89.74L186.642 90.0728L190.962 77.8328L190.019 77.5L189.076 77.1672L184.756 89.4072L185.699 89.74ZM190.019 77.5V78.5H247.079V77.5V76.5H190.019V77.5ZM247.079 77.5L246.136 77.8328L250.456 90.0728L251.399 89.74L252.342 89.4072L248.022 77.1672L247.079 77.5ZM251.399 89.74V88.74H185.699V89.74V90.74H251.399V89.74ZM284.025 129.16H283.025V130.16H284.025V129.16ZM284.025 3.16V2.16H283.025V3.16H284.025ZM299.145 3.16H300.145V2.16H299.145V3.16ZM299.145 129.16V130.16H300.145V129.16H299.145ZM284.025 129.16H285.025V3.16H284.025H283.025V129.16H284.025ZM284.025 3.16V4.16H299.145V3.16V2.16H284.025V3.16ZM299.145 3.16H298.145V129.16H299.145H300.145V3.16H299.145ZM299.145 129.16V128.16H284.025V129.16V130.16H299.145V129.16ZM317.114 129.16H316.114V130.16H317.114V129.16ZM317.114 3.16V2.16H316.114V3.16H317.114ZM332.234 3.16H333.234V2.16H332.234V3.16ZM332.234 58.96H331.234V61.4801L332.962 59.6457L332.234 58.96ZM384.794 3.16V2.16H384.362L384.066 2.47434L384.794 3.16ZM403.874 3.16L404.598 3.84981L406.208 2.16H403.874V3.16ZM345.734 64.18L345.01 63.4902L344.369 64.1628L344.993 64.8513L345.734 64.18ZM404.594 129.16V130.16H406.849L405.335 128.489L404.594 129.16ZM385.334 129.16L384.595 129.833L384.892 130.16H385.334V129.16ZM332.234 70.84L332.974 70.1668L331.234 68.2563V70.84H332.234ZM332.234 129.16V130.16H333.234V129.16H332.234ZM317.114 129.16H318.114V3.16H317.114H316.114V129.16H317.114ZM317.114 3.16V4.16H332.234V3.16V2.16H317.114V3.16ZM332.234 3.16H331.234V58.96H332.234H333.234V3.16H332.234ZM332.234 58.96L332.962 59.6457L385.522 3.84565L384.794 3.16L384.066 2.47434L331.506 58.2743L332.234 58.96ZM384.794 3.16V4.16H403.874V3.16V2.16H384.794V3.16ZM403.874 3.16L403.15 2.47018L345.01 63.4902L345.734 64.18L346.458 64.8698L404.598 3.84981L403.874 3.16ZM345.734 64.18L344.993 64.8513L403.853 129.831L404.594 129.16L405.335 128.489L346.475 63.5087L345.734 64.18ZM404.594 129.16V128.16H385.334V129.16V130.16H404.594V129.16ZM385.334 129.16L386.074 128.487L332.974 70.1668L332.234 70.84L331.495 71.5132L384.595 129.833L385.334 129.16ZM332.234 70.84H331.234V129.16H332.234H333.234V70.84H332.234ZM332.234 129.16V128.16H317.114V129.16V130.16H332.234V129.16ZM415.418 129.16H414.418V130.16H415.418V129.16ZM415.418 3.16V2.16H414.418V3.16H415.418ZM493.358 3.16H494.358V2.16H493.358V3.16ZM493.358 15.58V16.58H494.358V15.58H493.358ZM430.538 15.58V14.58H429.538V15.58H430.538ZM430.538 59.5H429.538V60.5H430.538V59.5ZM487.958 59.5H488.958V58.5H487.958V59.5ZM487.958 71.74V72.74H488.958V71.74H487.958ZM430.538 71.74V70.74H429.538V71.74H430.538ZM430.538 116.74H429.538V117.74H430.538V116.74ZM493.358 116.74H494.358V115.74H493.358V116.74ZM493.358 129.16V130.16H494.358V129.16H493.358ZM415.418 129.16H416.418V3.16H415.418H414.418V129.16H415.418ZM415.418 3.16V4.16H493.358V3.16V2.16H415.418V3.16ZM493.358 3.16H492.358V15.58H493.358H494.358V3.16H493.358ZM493.358 15.58V14.58H430.538V15.58V16.58H493.358V15.58ZM430.538 15.58H429.538V59.5H430.538H431.538V15.58H430.538ZM430.538 59.5V60.5H487.958V59.5V58.5H430.538V59.5ZM487.958 59.5H486.958V71.74H487.958H488.958V59.5H487.958ZM487.958 71.74V70.74H430.538V71.74V72.74H487.958V71.74ZM430.538 71.74H429.538V116.74H430.538H431.538V71.74H430.538ZM430.538 116.74V117.74H493.358V116.74V115.74H430.538V116.74ZM493.358 116.74H492.358V129.16H493.358H494.358V116.74H493.358ZM493.358 129.16V128.16H415.418V129.16V130.16H493.358V129.16ZM508.624 129.16H507.624V130.16H508.624V129.16ZM508.624 3.16V2.16H507.624V3.16H508.624ZM573.424 8.19999L572.95 9.08047L572.957 9.08403L572.963 9.08749L573.424 8.19999ZM587.104 58.6L586.229 58.1159L586.225 58.1231L586.221 58.1304L587.104 58.6ZM573.064 72.1L573.531 72.9842L573.531 72.9842L573.064 72.1ZM523.744 77.14V76.14H522.744V77.14H523.744ZM523.744 129.16V130.16H524.744V129.16H523.744ZM575.224 129.16L574.327 129.601L574.602 130.16H575.224V129.16ZM547.504 72.82V71.82H545.898L546.607 73.2615L547.504 72.82ZM564.424 72.82L565.316 72.3671L565.038 71.82H564.424V72.82ZM593.044 129.16V130.16H594.674L593.936 128.707L593.044 129.16ZM523.744 65.26H522.744V66.26H523.744V65.26ZM569.284 58.24L568.568 57.5421L568.559 57.5517L569.284 58.24ZM569.464 22.6L568.748 23.2974L568.757 23.3072L568.767 23.3167L569.464 22.6ZM523.744 15.94V14.94H522.744V15.94H523.744ZM508.624 129.16H509.624V3.16H508.624H507.624V129.16H508.624ZM508.624 3.16V4.16H549.304V3.16V2.16H508.624V3.16ZM549.304 3.16V4.16C559.04 4.16 566.901 5.82346 572.95 9.08047L573.424 8.19999L573.898 7.31952C567.467 3.85653 559.249 2.16 549.304 2.16V3.16ZM573.424 8.19999L572.963 9.08749C579.048 12.2469 583.512 16.4933 586.406 21.8175L587.284 21.34L588.163 20.8625C585.057 15.1467 580.28 10.6331 573.885 7.3125L573.424 8.19999ZM587.284 21.34L586.406 21.8175C589.318 27.1756 590.784 33.2485 590.784 40.06H591.784H592.784C592.784 32.9515 591.251 26.5444 588.163 20.8625L587.284 21.34ZM591.784 40.06H590.784C590.784 46.6182 589.264 52.6305 586.229 58.1159L587.104 58.6L587.979 59.0841C591.185 53.2895 592.784 46.9418 592.784 40.06H591.784ZM587.104 58.6L586.221 58.1304C583.327 63.572 578.803 67.9371 572.597 71.2158L573.064 72.1L573.531 72.9842C580.045 69.5429 584.882 64.908 587.987 59.0696L587.104 58.6ZM573.064 72.1L572.597 71.2158C566.426 74.4762 558.441 76.14 548.584 76.14V77.14V78.14C558.648 78.14 566.983 76.4438 573.531 72.9842L573.064 72.1ZM548.584 77.14V76.14H523.744V77.14V78.14H548.584V77.14ZM523.744 77.14H522.744V129.16H523.744H524.744V77.14H523.744ZM523.744 129.16V128.16H508.624V129.16V130.16H523.744V129.16ZM575.224 129.16L576.122 128.719L548.402 72.3785L547.504 72.82L546.607 73.2615L574.327 129.601L575.224 129.16ZM547.504 72.82V73.82H564.424V72.82V71.82H547.504V72.82ZM564.424 72.82L563.533 73.2729L592.153 129.613L593.044 129.16L593.936 128.707L565.316 72.3671L564.424 72.82ZM593.044 129.16V128.16H575.224V129.16V130.16H593.044V129.16ZM523.744 65.26V66.26H548.224V65.26V64.26H523.744V65.26ZM548.224 65.26V66.26C557.965 66.26 565.305 63.8871 570.01 58.9283L569.284 58.24L568.559 57.5517C564.383 61.9529 557.684 64.26 548.224 64.26V65.26ZM569.284 58.24L570.001 58.9379C574.765 54.048 577.124 47.7866 577.124 40.24H576.124H575.124C575.124 47.3334 572.924 53.072 568.568 57.5421L569.284 58.24ZM576.124 40.24H577.124C577.124 32.5883 574.833 26.4286 570.162 21.8833L569.464 22.6L568.767 23.3167C572.975 27.4113 575.124 33.0116 575.124 40.24H576.124ZM569.464 22.6L570.181 21.9026C565.585 17.1794 558.116 14.94 548.044 14.94V15.94V16.94C557.893 16.94 564.703 19.1406 568.748 23.2974L569.464 22.6ZM548.044 15.94V14.94H523.744V15.94V16.94H548.044V15.94ZM523.744 15.94H522.744V65.26H523.744H524.744V15.94H523.744ZM623.518 126.28L623.959 125.382L623.959 125.382L623.518 126.28ZM607.678 112.24L606.828 112.767L606.828 112.767L607.678 112.24ZM602.098 91.36V90.36H601.098V91.36H602.098ZM617.938 91.36H618.938V90.36H617.938V91.36ZM621.178 105.04L620.288 105.497L620.294 105.508L621.178 105.04ZM631.078 114.94L630.584 115.81L630.593 115.815L630.602 115.82L631.078 114.94ZM662.038 116.2L661.681 115.266L661.681 115.266L662.038 116.2ZM671.578 109.18L670.785 108.57L670.778 108.58L670.77 108.59L671.578 109.18ZM671.938 85.96L671.101 86.5073L671.113 86.5261L671.126 86.5443L671.938 85.96ZM663.478 78.22L663.971 77.35L663.971 77.35L663.478 78.22ZM651.418 73L651.078 73.9406L651.094 73.9461L651.109 73.9512L651.418 73ZM638.098 68.32L637.766 69.2634L637.774 69.2662L638.098 68.32ZM613.978 54.46L613.239 55.1343L613.247 55.1427L613.255 55.1509L613.978 54.46ZM611.098 17.2L610.257 16.6592L610.253 16.6645L611.098 17.2ZM624.778 5.32L624.345 4.41845L624.338 4.42194L624.778 5.32ZM666.898 5.5L666.443 6.39079L666.45 6.39442L666.898 5.5ZM680.938 17.92L680.094 18.4569L680.1 18.4657L680.938 17.92ZM685.978 35.92V36.92H686.978V35.92H685.978ZM670.138 35.92H669.138V36.92H670.138V35.92ZM658.798 16.3L658.317 17.1768L658.328 17.1829L658.339 17.1886L658.798 16.3ZM632.698 15.22L632.353 14.2811L632.343 14.285L632.698 15.22ZM624.418 21.52L623.602 20.942L623.593 20.9535L623.586 20.9653L624.418 21.52ZM623.878 42.22L624.728 41.6936L624.728 41.6936L623.878 42.22ZM630.718 48.88L630.179 49.7223L630.198 49.7347L630.218 49.7462L630.718 48.88ZM642.058 54.28L641.682 55.2067L641.697 55.2128L641.712 55.2183L642.058 54.28ZM657.718 60.04L657.373 60.9787L657.385 60.983L657.718 60.04ZM674.098 67.78L673.568 68.628L673.58 68.6357L673.593 68.643L674.098 67.78ZM685.618 78.76L684.768 79.2879L684.774 79.2961L684.779 79.3042L685.618 78.76ZM685.258 113.14L686.124 113.64L686.128 113.632L685.258 113.14ZM671.218 126.28L670.744 125.4L670.744 125.4L671.218 126.28ZM647.638 131.32V130.32C638.519 130.32 630.635 128.662 623.959 125.382L623.518 126.28L623.077 127.178C630.08 130.618 638.277 132.32 647.638 132.32V131.32ZM623.518 126.28L623.959 125.382C617.273 122.098 612.141 117.541 608.528 111.713L607.678 112.24L606.828 112.767C610.655 118.939 616.082 123.742 623.077 127.178L623.518 126.28ZM607.678 112.24L608.528 111.713C604.917 105.89 603.098 99.1171 603.098 91.36H602.098H601.098C601.098 99.4429 602.998 106.59 606.828 112.767L607.678 112.24ZM602.098 91.36V92.36H617.938V91.36V90.36H602.098V91.36ZM617.938 91.36H616.938C616.938 96.4322 618.053 101.15 620.288 105.497L621.178 105.04L622.067 104.583C619.983 100.53 618.938 96.1278 618.938 91.36H617.938ZM621.178 105.04L620.294 105.508C622.552 109.774 625.997 113.206 630.584 115.81L631.078 114.94L631.571 114.07C627.279 111.634 624.123 108.466 622.061 104.572L621.178 105.04ZM631.078 114.94L630.602 115.82C635.229 118.32 640.985 119.54 647.818 119.54V118.54V117.54C641.211 117.54 635.807 116.36 631.553 114.06L631.078 114.94ZM647.818 118.54V119.54C653.312 119.54 658.177 118.747 662.395 117.134L662.038 116.2L661.681 115.266C657.738 116.773 653.123 117.54 647.818 117.54V118.54ZM662.038 116.2L662.395 117.134C666.631 115.514 669.977 113.065 672.385 109.77L671.578 109.18L670.77 108.59C668.618 111.535 665.605 113.766 661.681 115.266L662.038 116.2ZM671.578 109.18L672.37 109.79C674.929 106.464 676.178 102.337 676.178 97.48H675.178H674.178C674.178 101.983 673.026 105.656 670.785 108.57L671.578 109.18ZM675.178 97.48H676.178C676.178 92.6464 675.061 88.5864 672.749 85.3757L671.938 85.96L671.126 86.5443C673.134 89.3336 674.178 92.9536 674.178 97.48H675.178ZM671.938 85.96L672.775 85.4128C670.638 82.1451 667.694 79.4598 663.971 77.35L663.478 78.22L662.985 79.09C666.461 81.0602 669.157 83.5349 671.101 86.5073L671.938 85.96ZM663.478 78.22L663.971 77.35C660.305 75.2729 656.222 73.507 651.726 72.0488L651.418 73L651.109 73.9512C655.493 75.373 659.45 77.0871 662.985 79.09L663.478 78.22ZM651.418 73L651.757 72.0594C647.432 70.4974 642.986 68.9356 638.421 67.3738L638.098 68.32L637.774 69.2662C642.329 70.8244 646.764 72.3826 651.078 73.9406L651.418 73ZM638.098 68.32L638.429 67.3766C627.584 63.5629 619.708 59.0098 614.701 53.7691L613.978 54.46L613.255 55.1509C618.567 60.7102 626.771 65.3971 637.766 69.2634L638.098 68.32ZM613.978 54.46L614.716 53.7857C609.858 48.4646 607.418 41.9311 607.418 34.12H606.418H605.418C605.418 42.3889 608.018 49.4154 613.239 55.1343L613.978 54.46ZM606.418 34.12H607.418C607.418 27.9316 608.933 22.4808 611.942 17.7355L611.098 17.2L610.253 16.6645C607.022 21.7592 605.418 27.5884 605.418 34.12H606.418ZM611.098 17.2L611.939 17.7408C615.071 12.8683 619.486 9.0255 625.218 6.21806L624.778 5.32L624.338 4.42194C618.31 7.3745 613.604 11.4517 610.257 16.6592L611.098 17.2ZM624.778 5.32L625.21 6.22152C631.048 3.41932 637.974 2 646.018 2V1V1.43051e-06C637.741 1.43051e-06 630.507 1.46068 624.345 4.41848L624.778 5.32ZM646.018 1V2C653.934 2 660.731 3.47656 666.443 6.39076L666.898 5.5L667.352 4.60924C661.304 1.52344 654.182 1.43051e-06 646.018 1.43051e-06V1ZM666.898 5.5L666.45 6.39442C672.3 9.31941 676.838 13.3408 680.094 18.4569L680.938 17.92L681.781 17.3831C678.317 11.9392 673.495 7.68057 667.345 4.60557L666.898 5.5ZM680.938 17.92L680.1 18.4657C683.342 23.4456 684.978 29.2515 684.978 35.92H685.978H686.978C686.978 28.9085 685.253 22.7144 681.776 17.3743L680.938 17.92ZM685.978 35.92V34.92H670.138V35.92V36.92H685.978V35.92ZM670.138 35.92H671.138C671.138 31.332 670.144 27.256 668.126 23.7239L667.258 24.22L666.389 24.7161C668.211 27.904 669.138 31.628 669.138 35.92H670.138ZM667.258 24.22L668.126 23.7239C666.102 20.1825 663.133 17.4124 659.256 15.4114L658.798 16.3L658.339 17.1886C661.902 19.0276 664.573 21.5375 666.389 24.7161L667.258 24.22ZM658.798 16.3L659.279 15.4232C655.371 13.2801 650.512 12.24 644.758 12.24V13.24V14.24C650.283 14.24 654.785 15.2399 658.317 17.1768L658.798 16.3ZM644.758 13.24V12.24C640.218 12.24 636.08 12.9149 632.353 14.2811L632.698 15.22L633.042 16.1589C636.516 14.8851 640.417 14.24 644.758 14.24V13.24ZM632.698 15.22L632.343 14.285C628.688 15.6714 625.763 17.8907 623.602 20.942L624.418 21.52L625.234 22.098C627.152 19.3893 629.748 17.4086 633.052 16.155L632.698 15.22ZM624.418 21.52L623.586 20.9653C621.526 24.0543 620.538 27.9843 620.538 32.68H621.538H622.538C622.538 28.2558 623.469 24.7457 625.25 22.0747L624.418 21.52ZM621.538 32.68H620.538C620.538 36.6519 621.345 40.0279 623.027 42.7464L623.878 42.22L624.728 41.6936C623.291 39.3721 622.538 36.3881 622.538 32.68H621.538ZM623.878 42.22L623.027 42.7464C624.681 45.4167 627.078 47.7376 630.179 49.7223L630.718 48.88L631.257 48.0377C628.358 46.1824 626.195 44.0633 624.728 41.6936L623.878 42.22ZM630.718 48.88L630.218 49.7462C633.388 51.5753 637.212 53.3947 641.682 55.2067L642.058 54.28L642.433 53.3533C638.023 51.5653 634.287 49.7847 631.217 48.0138L630.718 48.88ZM642.058 54.28L641.712 55.2183C646.272 56.8985 651.493 58.8186 657.373 60.9787L657.718 60.04L658.063 59.1013C652.183 56.9414 646.963 55.0215 642.403 53.3417L642.058 54.28ZM657.718 60.04L657.385 60.983C663.446 63.1221 668.838 65.6719 673.568 68.628L674.098 67.78L674.628 66.932C669.757 63.8881 664.23 61.2779 658.051 59.097L657.718 60.04ZM674.098 67.78L673.593 68.643C678.385 71.4485 682.102 74.9981 684.768 79.2879L685.618 78.76L686.467 78.2321C683.614 73.6419 679.65 69.8715 674.603 66.917L674.098 67.78ZM685.618 78.76L684.779 79.3042C687.527 83.541 688.938 88.9773 688.938 95.68H689.938H690.938C690.938 88.7027 689.468 82.8591 686.457 78.2158L685.618 78.76ZM689.938 95.68H688.938C688.938 101.621 687.425 107.272 684.387 112.648L685.258 113.14L686.128 113.632C689.33 107.968 690.938 101.979 690.938 95.68H689.938ZM685.258 113.14L684.392 112.64C681.377 117.858 676.843 122.115 670.744 125.4L671.218 126.28L671.692 127.16C678.072 123.725 682.899 119.222 686.124 113.64L685.258 113.14ZM671.218 126.28L670.744 125.4C664.69 128.659 657.006 130.32 647.638 130.32V131.32V132.32C657.23 132.32 665.265 130.621 671.692 127.16L671.218 126.28ZM822.648 129.16H821.648V130.16H822.648V129.16ZM822.648 3.16V2.16H821.648V3.16H822.648ZM837.768 3.16H838.768V2.16H837.768V3.16ZM837.768 129.16V130.16H838.768V129.16H837.768ZM742.188 129.16H741.188V130.16H742.188V129.16ZM742.188 3.16V2.16H741.188V3.16H742.188ZM757.308 3.16H758.308V2.16H757.308V3.16ZM757.308 129.16V130.16H758.308V129.16H757.308ZM754.428 71.2H753.428V72.2H754.428V71.2ZM754.428 58.78V57.78H753.428V58.78H754.428ZM826.428 58.78H827.428V57.78H826.428V58.78ZM826.428 71.2V72.2H827.428V71.2H826.428ZM822.648 129.16H823.648V3.16H822.648H821.648V129.16H822.648ZM822.648 3.16V4.16H837.768V3.16V2.16H822.648V3.16ZM837.768 3.16H836.768V129.16H837.768H838.768V3.16H837.768ZM837.768 129.16V128.16H822.648V129.16V130.16H837.768V129.16ZM742.188 129.16H743.188V3.16H742.188H741.188V129.16H742.188ZM742.188 3.16V4.16H757.308V3.16V2.16H742.188V3.16ZM757.308 3.16H756.308V129.16H757.308H758.308V3.16H757.308ZM757.308 129.16V128.16H742.188V129.16V130.16H757.308V129.16ZM754.428 71.2H755.428V58.78H754.428H753.428V71.2H754.428ZM754.428 58.78V59.78H826.428V58.78V57.78H754.428V58.78ZM826.428 58.78H825.428V71.2H826.428H827.428V58.78H826.428ZM826.428 71.2V70.2H754.428V71.2V72.2H826.428V71.2ZM852.496 129.16H851.496V130.16H852.496V129.16ZM852.496 39.88V38.88H851.496V39.88H852.496ZM867.616 39.88H868.616V38.88H867.616V39.88ZM867.616 129.16V130.16H868.616V129.16H867.616ZM852.496 19L853.203 18.2929L853.203 18.2929L852.496 19ZM852.496 4.05999L851.789 3.35289L851.789 3.35289L852.496 4.05999ZM867.436 4.05999L868.143 3.35289L868.143 3.35289L867.436 4.05999ZM867.436 19L866.729 18.2929L866.729 18.2929L867.436 19ZM852.496 129.16H853.496V39.88H852.496H851.496V129.16H852.496ZM852.496 39.88V40.88H867.616V39.88V38.88H852.496V39.88ZM867.616 39.88H866.616V129.16H867.616H868.616V39.88H867.616ZM867.616 129.16V128.16H852.496V129.16V130.16H867.616V129.16ZM860.056 22.06V21.06C857.309 21.06 855.047 20.1372 853.203 18.2929L852.496 19L851.789 19.7071C854.025 21.9428 856.803 23.06 860.056 23.06V22.06ZM852.496 19L853.203 18.2929C851.359 16.4486 850.436 14.1866 850.436 11.44H849.436H848.436C848.436 14.6934 849.553 17.4714 851.789 19.7071L852.496 19ZM849.436 11.44H850.436C850.436 8.82573 851.35 6.61993 853.203 4.7671L852.496 4.05999L851.789 3.35289C849.562 5.58006 848.436 8.29426 848.436 11.44H849.436ZM852.496 4.05999L853.203 4.7671C855.047 2.92282 857.309 2 860.056 2V1V1.43051e-06C856.803 1.43051e-06 854.025 1.11718 851.789 3.35289L852.496 4.05999ZM860.056 1V2C862.67 2 864.876 2.91428 866.729 4.7671L867.436 4.05999L868.143 3.35289C865.916 1.12572 863.202 1.43051e-06 860.056 1.43051e-06V1ZM867.436 4.05999L866.729 4.7671C868.573 6.61139 869.496 8.87342 869.496 11.62H870.496H871.496C871.496 8.36658 870.379 5.58861 868.143 3.35289L867.436 4.05999ZM870.496 11.62H869.496C869.496 14.2343 868.582 16.4401 866.729 18.2929L867.436 19L868.143 19.7071C870.37 17.4799 871.496 14.7657 871.496 11.62H870.496ZM867.436 19L866.729 18.2929C864.876 20.1457 862.67 21.06 860.056 21.06V22.06V23.06C863.202 23.06 865.916 21.9343 868.143 19.7071L867.436 19ZM923.464 129.16L922.517 129.483L922.749 130.16H923.464V129.16ZM880.444 3.16V2.16H879.046L879.497 3.48311L880.444 3.16ZM896.644 3.16L897.592 2.84198L897.363 2.16H896.644V3.16ZM935.164 118L934.216 118.318L934.444 119H935.164V118ZM935.884 118V119H936.607L936.834 118.313L935.884 118ZM973.684 3.16V2.16H972.96L972.734 2.84734L973.684 3.16ZM989.164 3.16L990.112 3.47825L990.554 2.16H989.164V3.16ZM946.864 129.16V130.16H947.583L947.812 129.478L946.864 129.16ZM923.464 129.16L924.41 128.837L881.39 2.83688L880.444 3.16L879.497 3.48311L922.517 129.483L923.464 129.16ZM880.444 3.16V4.16H896.644V3.16V2.16H880.444V3.16ZM896.644 3.16L895.696 3.47801L934.216 118.318L935.164 118L936.112 117.682L897.592 2.84198L896.644 3.16ZM935.164 118V119H935.884V118V117H935.164V118ZM935.884 118L936.834 118.313L974.634 3.47265L973.684 3.16L972.734 2.84734L934.934 117.687L935.884 118ZM973.684 3.16V4.16H989.164V3.16V2.16H973.684V3.16ZM989.164 3.16L988.216 2.84174L945.916 128.842L946.864 129.16L947.812 129.478L990.112 3.47825L989.164 3.16ZM946.864 129.16V128.16H923.464V129.16V130.16H946.864V129.16ZM1000.01 129.16H999.01V130.16H1000.01V129.16ZM1000.01 3.16V2.16H999.01V3.16H1000.01ZM1077.95 3.16H1078.95V2.16H1077.95V3.16ZM1077.95 15.58V16.58H1078.95V15.58H1077.95ZM1015.13 15.58V14.58H1014.13V15.58H1015.13ZM1015.13 59.5H1014.13V60.5H1015.13V59.5ZM1072.55 59.5H1073.55V58.5H1072.55V59.5ZM1072.55 71.74V72.74H1073.55V71.74H1072.55ZM1015.13 71.74V70.74H1014.13V71.74H1015.13ZM1015.13 116.74H1014.13V117.74H1015.13V116.74ZM1077.95 116.74H1078.95V115.74H1077.95V116.74ZM1077.95 129.16V130.16H1078.95V129.16H1077.95ZM1000.01 129.16H1001.01V3.16H1000.01H999.01V129.16H1000.01ZM1000.01 3.16V4.16H1077.95V3.16V2.16H1000.01V3.16ZM1077.95 3.16H1076.95V15.58H1077.95H1078.95V3.16H1077.95ZM1077.95 15.58V14.58H1015.13V15.58V16.58H1077.95V15.58ZM1015.13 15.58H1014.13V59.5H1015.13H1016.13V15.58H1015.13ZM1015.13 59.5V60.5H1072.55V59.5V58.5H1015.13V59.5ZM1072.55 59.5H1071.55V71.74H1072.55H1073.55V59.5H1072.55ZM1072.55 71.74V70.74H1015.13V71.74V72.74H1072.55V71.74ZM1015.13 71.74H1014.13V116.74H1015.13H1016.13V71.74H1015.13ZM1015.13 116.74V117.74H1077.95V116.74V115.74H1015.13V116.74ZM1077.95 116.74H1076.95V129.16H1077.95H1078.95V116.74H1077.95ZM1077.95 129.16V128.16H1000.01V129.16V130.16H1077.95V129.16Z" fill="#3C86DA" mask="url(#path-1-outside-1_4_13)"/>
</svg>
